<?xml version="1.0" standalone="no"?>
<!DOCTYPE svg PUBLIC "-//W3C//DTD SVG 20010904//EN"
 "http://www.w3.org/TR/2001/REC-SVG-20010904/DTD/svg10.dtd">
<svg version="1.0" xmlns="http://www.w3.org/2000/svg"
 width="1300.000000pt" height="1300.000000pt" viewBox="0 0 1300.000000 1300.000000"
 preserveAspectRatio="xMidYMid meet">
<metadata>
Created by potrace 1.14, written by Peter Selinger 2001-2017
</metadata>
<g transform="translate(0.000000,1300.000000) scale(0.100000,-0.100000)"
fill="#000000" stroke="none">
<path d="M0 6500 l0 -6500 6500 0 6500 0 0 6500 0 6500 -6500 0 -6500 0 0
-6500z m6930 5935 c0 -13 10 -29 24 -38 26 -18 66 -12 66 9 0 8 6 14 14 14 18
0 32 -58 17 -73 -17 -17 -13 -25 12 -29 12 -2 26 -13 32 -25 11 -26 45 -43 86
-43 39 0 85 -32 103 -73 8 -18 16 -67 19 -110 2 -43 9 -83 16 -90 6 -6 11 -17
11 -24 0 -33 47 -106 105 -167 36 -37 64 -70 63 -74 -2 -13 20 -58 35 -70 16
-14 101 -18 136 -7 11 3 36 28 55 54 35 48 95 101 114 101 6 0 44 25 87 55 56
41 85 55 110 55 19 0 37 -4 40 -10 9 -15 25 -12 25 5 0 8 5 15 10 15 6 0 10
-5 10 -10 0 -7 7 -7 20 0 11 6 25 8 30 5 6 -3 7 1 4 10 -4 10 -2 14 8 10 8 -3
20 1 27 9 7 8 19 12 27 9 8 -3 14 -1 14 4 0 5 8 9 18 10 14 1 17 -8 18 -62 0
-35 6 -71 13 -78 6 -8 9 -22 5 -31 -8 -20 0 -20 31 0 32 21 58 11 80 -29 17
-32 17 -34 -5 -82 -26 -57 -34 -65 -74 -65 -21 0 -27 -4 -22 -16 3 -9 6 -24 6
-35 0 -10 11 -26 25 -35 20 -13 26 -13 38 -3 12 11 12 16 0 27 -17 17 -6 37
12 22 10 -8 19 -8 34 0 15 8 32 8 61 0 59 -16 132 -49 155 -70 30 -27 159 -51
217 -40 27 5 58 6 70 1 12 -4 40 -4 62 0 23 4 44 5 48 3 4 -2 9 0 13 6 4 6 12
4 22 -5 9 -9 22 -14 29 -11 9 3 25 -11 42 -36 30 -46 29 -43 67 -118 31 -62
95 -134 140 -157 17 -9 48 -31 69 -49 22 -19 47 -34 57 -34 9 0 24 -11 32 -24
9 -13 33 -34 54 -47 21 -12 49 -33 61 -45 19 -18 31 -22 55 -17 18 4 37 13 44
22 10 14 12 14 19 -4 14 -36 48 -62 97 -74 26 -6 72 -23 103 -36 39 -17 74
-25 115 -25 52 0 60 3 77 28 60 85 88 221 53 261 -10 11 -38 25 -64 32 -26 6
-47 15 -47 19 0 5 -33 11 -72 13 -40 3 -95 10 -123 17 -27 6 -67 14 -87 17
-21 3 -38 9 -38 14 0 17 -18 9 -23 -11 -4 -16 -13 -20 -44 -18 -21 0 -49 -5
-63 -12 -51 -27 -59 -29 -65 -20 -3 5 -13 6 -22 3 -11 -4 -14 -3 -9 5 4 7 1
12 -8 12 -10 0 -16 9 -16 21 0 12 -8 23 -20 26 -28 7 -65 73 -48 85 10 7 9 11
-6 23 -13 10 -17 21 -12 39 3 15 11 26 16 26 6 0 10 10 10 23 0 18 -2 19 -10
7 -7 -11 -10 -7 -10 17 0 48 14 47 46 -3 25 -40 29 -42 36 -24 7 18 39 27 73
20 6 -1 19 -3 30 -4 12 -1 26 -6 33 -10 7 -4 12 -1 12 8 0 8 -4 17 -9 20 -10
7 -21 66 -11 66 13 0 31 72 25 100 -4 20 -1 37 9 52 9 12 16 19 16 14 0 -5 9
-1 20 9 12 10 18 25 15 33 -3 7 -2 24 1 37 4 18 15 24 51 29 26 3 51 2 58 -4
6 -5 15 -7 18 -3 4 3 7 -1 7 -10 0 -20 16 -23 23 -4 3 6 3 -4 1 -23 -11 -72
-14 -80 -35 -80 -18 0 -20 -4 -13 -32 10 -43 11 -164 2 -206 -6 -26 -4 -36 12
-49 11 -10 20 -22 20 -28 1 -10 67 -62 109 -85 14 -7 49 -13 78 -14 51 0 55
-3 90 -46 41 -50 116 -110 138 -110 20 0 34 -30 28 -61 -6 -31 10 -64 36 -78
14 -8 25 -4 51 19 38 34 49 35 104 16 38 -13 79 -53 70 -68 -2 -4 3 -11 13
-16 11 -7 30 -5 58 6 68 25 77 16 72 -78 -3 -55 0 -86 9 -98 12 -16 15 -15 46
13 18 16 28 24 21 16 -6 -7 -9 -21 -6 -30 4 -12 3 -13 -4 -3 -14 18 -35 -8
-32 -40 5 -53 -1 -68 -28 -74 -16 -3 -40 -10 -55 -16 -15 -5 -30 -8 -32 -7 -3
2 -54 -43 -113 -101 l-108 -105 95 98 95 97 -52 -4 c-81 -7 -109 -26 -119 -83
-4 -26 -8 -52 -9 -58 0 -5 -3 -14 -7 -20 -11 -19 -3 -68 12 -75 8 -4 49 -16
90 -26 41 -9 84 -23 96 -31 11 -7 43 -20 71 -28 27 -8 58 -24 68 -35 10 -11
22 -20 26 -20 17 0 148 -96 149 -108 0 -8 9 -12 23 -10 13 1 38 -10 61 -27 23
-17 51 -29 70 -30 44 -1 120 -40 149 -78 30 -40 44 -84 53 -165 5 -49 12 -67
30 -81 21 -16 22 -24 17 -75 -3 -32 -2 -56 3 -55 31 5 54 -3 54 -19 0 -25 -38
-42 -68 -31 -17 6 -28 5 -38 -6 -13 -13 -13 -18 2 -41 10 -14 35 -37 56 -50
21 -14 43 -35 47 -47 10 -25 85 -97 101 -97 6 0 10 -13 10 -29 0 -37 31 -61
77 -61 23 0 33 -5 33 -15 0 -9 7 -18 15 -21 22 -9 19 -34 -4 -34 -27 0 -36
-31 -15 -47 14 -10 19 -10 25 -1 9 14 8 14 32 -24 19 -30 8 -38 -17 -13 -8 8
-24 15 -35 15 -11 0 -23 5 -26 10 -4 6 -23 7 -45 4 -35 -6 -40 -4 -45 17 -3
13 -4 35 -3 49 2 19 -2 26 -19 28 -12 2 -25 12 -28 22 -3 11 -26 41 -51 67
-24 27 -54 66 -65 88 -24 47 -44 67 -87 89 -38 19 -46 32 -36 54 4 9 8 28 10
42 1 14 7 45 12 69 5 24 6 56 2 72 -5 15 -11 63 -15 106 -9 109 -14 133 -31
133 -8 0 -14 4 -14 9 0 5 -24 17 -54 25 -30 9 -56 22 -59 30 -4 9 -14 12 -28
9 -17 -5 -20 -3 -14 7 6 10 4 12 -8 7 -10 -3 -17 -3 -17 2 0 19 -44 18 -88 -2
-44 -19 -45 -21 -22 -27 17 -4 21 -8 12 -14 -6 -4 -12 -18 -12 -32 0 -29 -21
-54 -44 -54 -21 0 -20 24 0 45 12 11 13 20 6 27 -12 12 -55 1 -47 -13 4 -5 -3
-9 -14 -9 -12 0 -21 5 -21 10 0 17 -43 29 -58 17 -10 -8 -14 -5 -19 11 -3 13
-13 22 -24 22 -11 0 -28 9 -38 19 -19 19 -48 28 -110 36 -40 5 -101 34 -101
48 0 6 -3 7 -6 4 -4 -3 -16 -1 -27 4 -15 8 -22 8 -28 -2 -7 -11 -12 -11 -27
-2 -17 10 -19 9 -16 -18 2 -16 11 -44 21 -62 9 -17 17 -36 18 -42 1 -10 51
-113 80 -165 8 -13 22 -30 31 -37 19 -14 64 -118 64 -148 0 -23 35 -85 49 -85
5 0 13 -19 19 -43 6 -23 23 -64 37 -90 14 -27 25 -56 25 -65 1 -9 17 -62 36
-117 20 -55 37 -116 38 -135 3 -41 21 -89 40 -104 23 -18 34 -105 29 -223 -5
-96 -3 -114 12 -129 13 -13 14 -19 3 -25 -8 -5 -12 -27 -11 -64 1 -39 -2 -55
-11 -55 -22 0 -46 -112 -61 -285 -3 -33 -10 -102 -17 -153 -9 -71 -9 -95 0
-104 16 -16 15 -28 -3 -28 -8 0 -17 -10 -19 -22 -5 -29 -29 -206 -31 -233 -1
-11 -7 -39 -13 -61 -7 -23 -16 -63 -21 -89 -8 -43 -7 -46 10 -42 10 3 19 2 21
-2 4 -8 109 -51 126 -51 7 0 17 -11 22 -25 5 -14 20 -29 33 -34 14 -5 27 -17
31 -27 9 -24 -4 -85 -20 -91 -8 -3 -14 -11 -14 -18 0 -7 -12 -24 -26 -39 -24
-23 -34 -26 -96 -26 -38 0 -77 4 -87 10 -10 5 -36 10 -57 12 -21 1 -42 7 -46
12 -5 7 -11 6 -18 -4 -9 -13 -10 -13 -10 0 0 14 -12 -3 -65 -90 -11 -18 -35
-51 -52 -74 -18 -22 -38 -52 -45 -66 -7 -14 -18 -29 -25 -33 -7 -4 -13 -15
-13 -22 0 -8 -4 -15 -9 -15 -6 0 -11 -19 -13 -42 -2 -28 -7 -42 -15 -41 -7 2
-15 -8 -19 -22 -6 -26 -49 -59 -64 -50 -5 3 -17 -7 -27 -22 -10 -15 -28 -36
-40 -46 -13 -10 -23 -28 -24 -40 0 -20 -1 -21 -8 -3 -7 18 -8 18 -14 2 -4 -9
-12 -14 -18 -10 -26 16 13 -34 70 -91 l61 -60 313 310 312 310 -310 -312 -310
-313 90 -92 90 -93 -93 90 -92 90 -408 -405 -407 -405 405 408 405 408 -73 71
c-54 52 -76 68 -84 60 -8 -8 -8 -15 1 -26 10 -12 9 -14 -6 -10 -13 3 -28 -10
-53 -46 -19 -27 -38 -50 -42 -50 -5 0 -8 -7 -8 -15 0 -8 -6 -15 -12 -15 -7 0
-29 -16 -48 -35 -67 -67 -145 -130 -192 -154 -32 -16 -52 -35 -64 -59 -9 -20
-32 -51 -50 -70 -19 -19 -34 -41 -34 -48 0 -8 -21 -15 -59 -20 -33 -3 -62 -12
-65 -19 -3 -9 -16 -10 -46 -5 -27 5 -55 3 -83 -7 -59 -20 -147 -63 -147 -72 0
-9 -51 -35 -62 -33 -5 1 -8 -3 -8 -8 0 -10 -39 -29 -67 -34 -7 -1 -16 -5 -19
-9 -4 -4 -16 -7 -26 -7 -10 0 -21 -7 -25 -16 -4 -12 -8 -13 -13 -3 -6 9 -15 5
-34 -14 -15 -15 -38 -30 -51 -33 -13 -3 -27 -15 -30 -25 -6 -18 -35 -27 -35
-11 0 4 -19 6 -42 4 -31 -3 -52 -14 -77 -38 -20 -19 -39 -34 -43 -34 -5 0 -8
-10 -8 -22 0 -17 -11 -28 -42 -43 -23 -11 -48 -26 -56 -34 -11 -11 -18 -12
-31 -4 -11 7 -23 8 -32 2 -8 -5 -10 -9 -5 -9 5 0 3 -6 -3 -14 -9 -11 -9 -20
-2 -34 9 -18 7 -19 -28 -17 -24 1 -56 14 -85 34 -26 17 -53 31 -61 31 -7 0
-15 5 -17 11 -2 6 -36 12 -78 13 -41 2 -83 6 -94 11 -11 5 -21 3 -26 -5 -5 -8
-10 -9 -14 -2 -15 25 -169 -12 -189 -45 -4 -7 -23 -13 -41 -13 -25 0 -40 7
-56 28 -19 24 -28 28 -54 23 -17 -4 -31 -12 -31 -19 0 -6 -11 -19 -24 -28
l-23 -17 18 29 c10 16 11 23 4 16 -17 -14 -34 -16 -25 -2 11 18 -1 11 -24 -14
l-22 -24 32 -38 33 -39 -34 30 c-44 38 -50 46 -44 60 3 5 -2 1 -10 -9 -18 -23
-57 -30 -49 -9 3 8 -3 13 -16 13 -12 0 -24 7 -27 15 -4 8 -11 15 -16 15 -6 0
-8 -7 -4 -15 3 -8 1 -15 -5 -15 -20 0 -89 41 -90 53 0 6 -3 24 -5 39 -3 20 -1
26 9 22 17 -6 43 21 27 31 -5 3 -10 11 -10 16 0 6 6 7 13 3 8 -5 8 -2 -2 9 -7
9 -18 17 -23 17 -12 0 1 -43 16 -52 6 -4 1 -6 -11 -6 -13 1 -19 7 -16 15 6 16
-16 45 -28 37 -5 -3 -4 -14 2 -26 10 -18 8 -19 -12 -13 -20 7 -31 -1 -71 -46
-37 -41 -50 -51 -57 -40 -9 15 -118 24 -127 10 -2 -4 4 -13 15 -19 12 -6 18
-16 15 -25 -4 -10 0 -15 13 -15 11 0 28 -6 39 -14 18 -14 18 -16 3 -31 -13
-14 -21 -15 -38 -6 -11 7 -21 16 -21 21 0 16 -36 12 -50 -5 -7 -8 -18 -15 -25
-15 -15 0 -65 -56 -65 -73 0 -8 12 -27 26 -43 16 -16 22 -30 15 -32 -6 -2 -11
-10 -11 -18 0 -8 -9 -14 -19 -14 -11 0 -22 -4 -26 -10 -3 -5 -13 -6 -21 -3
-13 5 -15 1 -9 -15 6 -22 -8 -31 -20 -12 -21 34 -45 -24 -50 -116 -1 -38 2
-75 7 -82 6 -7 11 -39 12 -72 0 -33 4 -60 8 -60 4 0 8 -14 8 -31 0 -19 7 -37
18 -45 15 -12 15 -13 1 -14 -16 0 -15 -24 7 -114 6 -24 4 -28 -9 -23 -14 5
-16 -2 -15 -41 0 -26 4 -51 8 -57 4 -5 8 -28 9 -50 1 -22 2 -53 3 -70 3 -68
-8 -191 -17 -197 -6 -5 -5 -8 3 -8 6 0 12 -9 12 -20 0 -11 9 -34 19 -51 l19
-31 -28 -53 c-16 -30 -26 -55 -24 -58 3 -2 7 -62 11 -133 3 -71 9 -136 13
-144 8 -16 4 -167 -5 -207 -3 -13 -1 -23 5 -23 7 0 9 -8 5 -20 -4 -12 -1 -27
5 -35 6 -7 15 -26 19 -42 4 -15 10 -26 13 -23 9 7 48 -31 48 -47 0 -7 4 -13 8
-13 5 0 19 -8 30 -19 23 -19 29 -46 12 -56 -7 -4 -6 -13 1 -26 8 -16 7 -25 -8
-42 l-18 -22 24 20 c18 15 25 17 28 7 4 -9 10 -7 23 9 11 12 24 18 31 13 7 -4
9 -3 6 3 -3 5 7 9 23 9 25 0 27 -2 19 -18 -5 -10 -15 -18 -22 -18 -8 0 -7 4 3
10 8 5 12 12 8 15 -9 9 -58 -24 -58 -39 0 -7 3 -7 8 1 15 24 76 4 100 -33 16
-24 30 -34 48 -34 21 0 25 -4 21 -20 -5 -20 3 -24 33 -20 11 1 10 -2 -4 -13
-20 -14 -15 -37 8 -37 7 0 25 -14 39 -30 15 -16 34 -30 41 -30 8 0 18 -9 21
-20 4 -11 10 -18 15 -15 11 7 51 -15 91 -52 19 -17 53 -47 77 -68 23 -21 42
-43 42 -49 0 -6 13 -25 28 -42 15 -17 43 -54 62 -83 33 -52 34 -57 38 -173 6
-182 -12 -235 -117 -348 -93 -101 -104 -110 -128 -110 -14 0 -21 -4 -18 -10 3
-5 0 -10 -7 -10 -9 0 -9 -3 2 -10 11 -8 0 -10 -40 -9 -33 1 -63 8 -75 18 -13
10 -12 6 5 -13 23 -26 23 -28 4 -18 -24 13 -35 7 -28 -13 3 -7 0 -16 -5 -20
-6 -3 -9 -10 -6 -15 7 -11 -117 -9 -132 3 -10 7 -13 4 -13 -13 0 -22 -1 -22
-46 -4 -30 13 -47 -108 -16 -125 12 -8 13 -10 3 -11 -11 0 -10 -4 4 -14 13 -9
16 -18 10 -32 -11 -25 -13 -64 -3 -70 4 -3 8 -10 8 -16 0 -5 -15 -1 -34 10
-29 17 -35 18 -40 6 -3 -9 -10 -12 -16 -9 -5 3 -10 -3 -10 -14 0 -12 5 -21 11
-21 5 0 15 -13 20 -29 6 -16 19 -31 30 -34 19 -5 27 -27 9 -27 -5 0 -10 -13
-10 -29 0 -42 -15 -77 -47 -109 -16 -15 -28 -34 -28 -42 0 -8 -7 -15 -15 -15
-8 0 -15 -7 -15 -15 0 -8 -17 -32 -38 -53 -21 -20 -36 -41 -33 -46 3 -5 -8
-24 -24 -42 -16 -19 -30 -38 -30 -42 0 -5 -4 -5 -10 -2 -6 4 -10 -7 -10 -24 0
-17 -5 -30 -11 -29 -6 2 -16 -6 -22 -17 -7 -11 -15 -22 -18 -25 -3 -3 -8 -15
-11 -27 -6 -21 -3 -23 40 -23 87 0 120 10 125 36 2 13 1 24 -3 24 -4 0 -7 19
-7 43 0 40 2 43 29 45 58 5 92 -37 118 -146 12 -51 11 -53 -14 -79 -44 -44
-47 -93 -5 -93 11 0 19 -7 19 -16 0 -14 -3 -14 -15 -4 -12 10 -15 9 -15 -4 0
-11 -5 -14 -12 -10 -7 4 -8 3 -4 -4 4 -6 4 -23 0 -37 -4 -18 -13 -25 -30 -25
-13 0 -24 -5 -24 -12 0 -7 -6 -5 -17 4 -10 9 -29 19 -42 23 -18 6 -20 9 -10
16 19 12 -3 12 -34 0 -14 -6 -28 -7 -32 -3 -3 4 9 11 27 18 24 8 39 23 57 58
24 47 24 47 5 66 -19 19 -20 19 -69 -5 -27 -14 -54 -30 -59 -35 -15 -15 -16
-43 -4 -58 9 -10 8 -16 -3 -23 -23 -15 -61 0 -94 37 l-30 35 -37 -15 c-21 -9
-52 -16 -70 -16 -51 0 -126 30 -133 54 -4 13 -8 16 -11 9 -4 -10 -11 -9 -29 3
-24 15 -80 10 -69 -7 3 -5 0 -9 -5 -9 -6 0 -11 -7 -11 -16 0 -12 -6 -15 -23
-11 -12 4 -28 2 -36 -2 -16 -10 -71 6 -71 20 0 5 -6 9 -14 9 -29 0 -60 70 -37
85 15 9 -9 55 -29 55 -9 0 -20 4 -26 10 -15 15 -54 0 -54 -21 0 -11 -4 -19 -9
-19 -14 0 -19 -35 -9 -54 8 -13 0 -27 -34 -64 -26 -28 -50 -46 -60 -44 -10 2
-21 -4 -24 -12 -11 -28 -41 -18 -53 15 -17 49 -13 77 14 101 51 45 57 144 10
190 -13 13 -34 33 -47 45 -14 14 -36 23 -54 23 -17 0 -39 7 -50 15 -10 8 -35
15 -55 15 -41 0 -48 19 -33 83 7 29 -11 38 -33 16 -8 -8 -17 -8 -29 -1 -13 7
-25 5 -45 -10 -48 -36 -148 -7 -183 53 -13 23 -24 29 -50 29 -19 0 -39 -7 -46
-15 -7 -9 -18 -14 -24 -12 -6 2 -22 -4 -35 -14 -28 -23 -43 -23 -79 -5 -15 7
-41 16 -59 19 -25 5 -31 3 -27 -8 4 -10 -7 -17 -35 -25 -27 -7 -39 -15 -35
-22 5 -8 2 -9 -9 -5 -10 3 -17 2 -17 -4 0 -6 -5 -7 -11 -4 -5 4 -19 -1 -30
-11 -23 -20 -26 -2 -3 20 19 19 8 20 -25 2 -16 -9 -35 -11 -60 -5 -33 7 -43
16 -74 62 -7 11 -33 23 -62 28 -27 5 -51 13 -55 18 -14 24 -58 29 -126 15
-133 -27 -200 -33 -339 -28 -169 5 -208 11 -257 36 -42 22 -98 86 -98 113 0 9
-19 36 -41 60 -40 43 -89 108 -89 119 0 3 -11 22 -25 42 -23 34 -24 38 -9 72
8 21 22 42 30 49 19 14 21 139 2 127 -4 -3 -8 2 -8 10 0 9 -5 16 -11 16 -6 0
-8 7 -5 16 5 13 3 14 -6 6 -7 -5 -26 -9 -42 -7 -16 2 -34 -1 -40 -5 -75 -60
-70 -52 -70 -134 1 -42 -2 -76 -7 -76 -10 0 -30 -60 -24 -70 3 -5 1 -12 -5
-15 -8 -5 -7 -11 1 -21 6 -8 9 -14 6 -14 -3 0 -2 -13 4 -28 9 -26 87 -92 108
-92 5 0 11 -7 15 -15 3 -8 17 -20 31 -25 28 -11 33 -43 11 -75 -13 -19 -32
-101 -28 -119 5 -17 -10 -46 -20 -40 -7 4 -8 2 -4 -4 4 -7 4 -17 0 -24 -4 -7
-9 -21 -10 -32 -2 -12 -5 -36 -8 -54 -3 -17 -2 -32 2 -32 19 0 21 -132 3 -154
-7 -9 -22 -16 -33 -16 -11 0 -31 -9 -45 -20 -14 -11 -32 -20 -39 -20 -7 0 -21
-12 -30 -26 -14 -21 -19 -23 -26 -11 -5 9 -3 27 3 44 7 15 13 34 15 41 5 28
28 44 55 38 19 -4 31 1 45 17 18 21 22 63 4 52 -4 -3 -13 2 -20 10 -7 8 -18
15 -25 15 -6 0 -31 18 -54 40 -24 23 -47 37 -54 33 -6 -4 -20 -8 -32 -9 -91
-10 -181 -26 -189 -34 -6 -6 -18 -10 -28 -10 -10 0 -18 -4 -18 -8 0 -4 -20
-13 -44 -20 -52 -14 -103 -54 -108 -85 -2 -17 -11 -23 -38 -25 -32 -3 -37 1
-59 43 -13 25 -28 45 -34 45 -13 0 -67 57 -67 70 0 5 -11 12 -25 16 -14 3 -34
17 -44 30 -10 13 -23 24 -28 24 -18 0 -84 63 -79 76 3 8 -3 18 -13 24 -22 11
-35 60 -15 60 7 0 15 10 17 23 3 13 5 6 6 -18 2 -39 37 -95 60 -95 5 0 24 -12
42 -28 43 -36 103 -64 108 -50 2 7 6 7 10 -1 9 -15 81 6 97 28 7 9 15 35 19
59 4 24 13 46 21 49 27 10 56 84 57 139 0 39 -6 57 -21 72 -16 16 -19 29 -15
64 6 51 27 70 99 93 36 11 54 23 57 37 3 11 10 17 16 13 6 -3 9 0 5 8 -3 8 3
20 12 28 16 13 17 12 10 -6 -6 -16 -2 -15 21 8 41 38 50 34 18 -10 -26 -33
-27 -39 -18 -76 10 -35 8 -42 -11 -60 -11 -12 -35 -41 -53 -66 -31 -43 -31
-44 -12 -64 10 -12 19 -26 19 -33 0 -19 25 -24 51 -10 13 7 27 13 31 15 48 15
68 24 68 32 0 5 6 9 14 9 18 0 56 47 56 69 0 9 9 34 20 56 18 35 18 41 5 62
-17 26 -20 93 -4 93 6 0 9 6 6 14 -3 8 -1 16 5 18 7 3 8 16 3 37 -4 19 -10 29
-14 22 -4 -6 -21 -14 -39 -17 -26 -5 -32 -3 -32 10 0 10 -4 14 -10 11 -17 -10
-11 21 9 46 19 25 14 69 -9 69 -5 0 -25 14 -43 31 -17 17 -42 38 -54 46 -13 9
-23 21 -23 28 0 7 -10 15 -22 19 -14 3 -19 9 -13 13 9 7 12 27 6 36 -2 1 -5
50 -8 108 -4 86 -2 112 11 138 9 17 16 33 16 36 0 3 9 14 20 25 11 11 20 17
20 14 0 -3 7 2 16 10 8 9 21 16 29 16 7 0 15 7 19 15 3 8 13 15 23 15 10 0 30
6 45 14 15 8 42 17 60 21 18 4 38 11 44 16 7 6 31 15 55 22 32 9 48 21 58 41
9 20 16 25 24 17 12 -12 89 -15 101 -4 7 8 6 7 101 27 39 8 72 12 74 10 2 -2
10 1 16 6 15 13 132 22 245 21 98 -2 140 5 140 24 0 7 7 15 15 19 8 3 15 16
15 28 0 13 9 31 20 41 11 9 20 23 20 30 0 8 9 22 20 32 11 10 20 23 20 29 0 6
9 17 20 24 11 7 20 18 20 25 0 7 5 18 12 25 13 13 23 86 11 79 -5 -3 -9 3 -9
14 0 10 5 19 11 19 5 1 0 9 -12 19 -16 14 -19 21 -10 30 8 8 8 11 -1 11 -18 0
-14 18 6 23 13 4 11 5 -5 6 -16 1 -23 7 -23 21 0 25 9 25 26 3 12 -16 12 -16
7 5 -3 12 -10 22 -15 22 -10 0 -38 25 -38 34 0 3 6 6 14 6 17 0 16 32 -1 43
-17 10 -17 59 0 76 10 11 8 12 -12 6 -20 -6 -23 -5 -17 11 4 10 1 21 -6 26
-10 6 -9 8 3 8 11 0 17 8 16 23 0 12 3 35 8 51 6 21 5 27 -4 22 -16 -10 -14
19 3 33 8 7 15 20 14 29 -1 66 12 241 20 261 9 25 -5 81 -20 81 -5 0 -20 26
-34 57 -21 44 -26 72 -25 118 1 32 7 62 13 66 21 13 0 56 -34 70 -40 16 -48
26 -48 63 0 63 34 113 73 107 4 -1 7 4 7 10 0 5 5 7 10 4 16 -10 12 38 -6 63
-19 27 -28 100 -15 116 13 16 2 56 -16 56 -11 0 -11 4 -2 21 8 17 7 34 -5 78
-9 31 -23 79 -31 106 -8 28 -28 64 -45 82 -16 18 -30 38 -30 45 -1 37 -17 43
-136 45 -66 1 -121 6 -127 12 -16 16 -67 14 -67 -3 0 -20 -30 -74 -31 -56 -3
40 4 66 22 82 10 9 19 23 19 31 0 19 50 28 163 31 62 2 92 8 122 24 22 12 57
24 78 27 53 8 77 38 77 97 0 29 8 63 20 86 12 21 16 38 10 40 -6 2 -8 8 -4 13
3 5 0 9 -6 9 -23 0 -48 37 -70 102 l-23 68 38 49 c21 28 51 55 67 62 15 6 28
17 27 23 -1 6 -1 25 0 41 2 29 2 29 16 11 14 -19 15 -19 15 6 0 15 5 30 10 33
7 4 8 23 5 49 -5 33 -2 47 14 68 16 19 21 41 21 83 0 32 -4 54 -9 50 -6 -3 -6
9 0 29 13 45 5 413 -10 449 -9 23 -8 27 5 27 14 0 14 3 4 15 -7 8 -10 24 -7
35 3 13 0 20 -9 20 -10 0 -11 6 -4 25 6 15 6 26 0 30 -6 4 -10 13 -10 21 0 8
3 13 8 11 4 -3 7 10 7 29 0 19 -4 34 -8 34 -5 0 -5 4 -2 10 3 6 -1 7 -9 4 -9
-3 -16 -1 -16 5 0 9 -29 10 -112 5 -83 -5 -109 -4 -104 4 5 9 -6 12 -38 12
-45 0 -58 -9 -63 -45 -7 -44 -30 -62 -80 -64 -63 -3 -86 -6 -98 -12 -6 -3 -35
-3 -65 1 -30 4 -46 8 -34 9 11 0 25 6 32 13 6 6 18 13 26 14 18 3 96 64 96 76
0 4 6 8 14 8 8 0 22 7 30 16 9 8 16 12 16 8 0 -4 8 0 18 8 21 19 99 50 132 53
115 12 147 20 174 42 23 19 36 23 71 19 45 -6 44 -7 61 69 1 6 3 12 4 15 13
34 19 154 8 167 -6 7 -7 20 -4 30 11 28 15 173 7 233 -5 41 -3 61 7 78 9 14
10 22 3 22 -6 0 -8 7 -4 17 5 11 3 14 -6 8 -10 -6 -11 -3 -2 14 16 30 -1 27
-41 -7 -18 -15 -42 -34 -53 -42 -19 -14 -19 -14 -2 6 9 11 17 26 17 32 0 7 6
12 13 12 8 0 7 3 -3 10 -12 7 -12 12 0 34 7 14 19 26 26 26 7 0 16 5 20 11 5
8 -1 10 -20 7 -14 -3 -26 -2 -26 2 0 12 28 20 48 14 13 -5 14 -4 3 4 -7 5 -11
14 -7 20 4 6 -2 8 -15 5 -18 -5 -20 -3 -14 18 4 16 3 20 -3 10 -7 -9 -12 -10
-16 -2 -9 14 -99 14 -145 1 -27 -7 -32 -7 -23 2 7 7 12 16 12 21 0 4 -21 -11
-46 -35 -34 -32 -44 -47 -39 -63 9 -27 12 -106 4 -97 -4 4 -10 35 -13 69 -6
58 -5 63 23 95 25 29 27 34 11 34 -10 0 -18 -4 -17 -9 1 -5 -8 -15 -20 -24
-20 -13 -21 -13 -16 6 3 12 10 21 15 21 5 0 6 5 3 11 -5 6 -12 4 -20 -8 -8
-10 -17 -14 -22 -9 -4 5 -3 11 4 13 9 3 7 13 -6 36 -30 54 -34 87 -14 103 16
12 16 15 3 24 -8 5 -11 10 -6 10 4 0 -4 16 -19 36 -15 19 -24 38 -21 41 3 3 1
12 -5 20 -9 9 -8 13 0 13 6 0 11 -4 11 -9 0 -5 6 -11 13 -14 12 -4 17 10 16
51 0 9 0 37 0 62 0 24 -4 49 -8 55 -5 5 -8 40 -8 77 -1 58 -4 72 -27 99 -23
27 -26 38 -23 87 3 31 10 58 16 60 14 5 -75 92 -94 92 -7 0 -15 4 -17 8 -5 13
-78 52 -98 52 -20 0 -30 19 -30 60 0 15 -7 33 -15 40 -9 7 -14 19 -11 26 3 9
-1 11 -12 8 -15 -5 -15 -4 -2 5 8 6 27 8 41 5 19 -3 28 0 33 11 3 9 10 13 16
10 6 -4 25 3 44 14 18 12 45 21 60 21 14 0 26 5 26 10 0 6 6 10 14 10 8 0 23
14 33 30 9 17 21 30 25 30 7 0 15 34 21 91 1 14 19 41 38 60 41 39 54 64 58
107 0 7 5 11 10 8 4 -3 11 14 14 38 4 25 21 66 42 97 31 48 41 78 36 116 -1 7
5 26 13 42 14 25 14 30 1 35 -8 3 -24 26 -36 51 -16 33 -27 45 -43 45 -25 0
-71 43 -62 58 3 6 -1 12 -9 16 -8 3 -15 12 -15 20 0 25 -29 26 -73 4 -23 -12
-44 -25 -47 -28 -3 -3 -18 -11 -34 -18 -26 -12 -33 -10 -70 15 -22 15 -42 31
-44 36 -9 20 -20 4 -12 -17 7 -19 4 -30 -11 -49 -10 -14 -19 -30 -19 -37 0 -6
-15 -17 -32 -25 -18 -8 -29 -14 -24 -15 13 0 -14 -30 -28 -30 -6 0 -4 5 4 10
13 9 13 11 0 20 -8 5 -21 8 -27 5 -7 -2 -12 1 -10 7 1 5 -6 12 -17 13 -10 2
-28 13 -40 24 -12 12 -28 21 -34 21 -7 0 -12 7 -12 15 0 8 7 15 15 15 15 0 32
32 41 74 2 10 7 23 12 30 5 6 13 22 17 36 4 13 13 30 20 37 7 6 16 29 20 49 9
50 34 79 70 81 65 5 75 11 75 49 0 20 -4 33 -9 29 -6 -3 -15 4 -21 15 -6 11
-17 20 -25 20 -8 0 -15 7 -15 15 0 8 -4 15 -10 15 -5 0 -10 -4 -10 -9 0 -11
-39 -2 -58 12 -8 6 -35 12 -60 14 -75 6 -182 42 -206 70 -11 14 -38 43 -59 64
-22 21 -36 42 -33 47 3 6 -1 13 -10 16 -8 3 -14 14 -12 23 2 11 -3 18 -12 17
-9 -1 -16 6 -17 15 0 9 -6 43 -13 76 -10 52 -10 98 2 156 2 8 18 38 36 66 18
27 32 55 32 62 0 7 5 9 10 6 6 -3 14 5 20 19 9 24 40 37 40 17 0 -10 14 -9 41
3 9 4 20 6 25 5 5 -1 11 0 14 1 20 7 56 11 127 13 50 2 87 8 97 16 9 8 19 11
23 7 4 -3 -2 -13 -13 -21 -10 -8 -14 -15 -7 -15 6 0 19 10 27 22 9 12 16 18
16 13 0 -5 37 26 82 70 63 60 69 65 28 20 -30 -33 -58 -61 -63 -63 -4 -2 -4
-9 -1 -14 4 -6 2 -8 -3 -5 -6 4 -18 -2 -27 -12 -15 -16 -15 -18 3 -16 11 1 27
7 35 14 14 12 16 11 10 -5 -5 -17 -4 -17 5 -2 6 9 25 20 43 23 17 4 39 15 47
25 9 9 43 25 76 36 84 26 116 46 104 64 -22 35 0 41 31 8 11 -12 20 -29 20
-39 0 -9 10 -23 23 -32 20 -13 26 -13 42 -1 24 18 85 19 85 2 0 -9 4 -8 10 2
8 12 10 10 11 -10 1 -14 1 -28 1 -31 -1 -10 33 -6 40 5 4 6 8 24 8 39 0 16 11
53 25 84 17 35 23 63 19 76 -6 20 -5 21 11 7 17 -14 18 -13 12 15 -3 17 -8 37
-12 46 -4 12 1 18 19 23 30 7 35 36 10 57 -14 11 -18 10 -30 -6 -8 -10 -14
-24 -14 -31 0 -7 -4 -16 -10 -19 -6 -3 -7 1 -4 9 5 13 -4 16 -53 16 -32 0 -64
5 -70 11 -7 7 -29 15 -50 18 -33 6 -38 10 -38 33 0 16 -4 24 -11 21 -8 -3 -11
2 -7 16 3 12 14 21 24 21 11 0 19 3 19 8 0 7 48 32 63 32 5 0 15 7 23 15 13
12 55 19 90 14 4 0 10 4 13 10 5 7 16 6 35 -4 l27 -14 -32 42 c-18 23 -53 64
-77 90 -46 51 -49 67 -26 145 5 17 3 23 -7 21 -8 -2 -36 7 -62 19 -26 11 -72
29 -102 38 -30 10 -55 21 -55 26 0 4 -9 8 -19 8 -11 0 -22 4 -25 8 -3 5 -19 8
-36 7 -16 -1 -30 1 -30 4 0 13 -74 46 -95 43 -33 -4 -59 32 -64 91 -1 5 -5 6
-10 2 -11 -6 -142 44 -152 58 -9 12 1 80 13 92 6 7 13 4 19 -8 18 -32 53 -59
115 -88 34 -16 67 -36 73 -43 7 -8 24 -17 39 -20 15 -4 41 -14 58 -23 38 -19
61 -12 74 22 8 21 16 25 50 25 22 0 40 5 40 11 0 5 4 8 9 5 10 -7 36 21 50 54
6 14 15 32 20 40 5 8 12 22 14 31 4 13 21 16 82 17 66 0 81 4 101 23 13 12 24
18 24 13 0 -6 12 -9 28 -8 43 2 44 3 38 19 -4 10 1 15 14 15 11 0 20 -4 20 -9
0 -6 15 -11 33 -13 25 -2 34 -9 42 -33 6 -16 21 -46 33 -65 12 -19 19 -43 16
-52 -4 -14 1 -18 24 -18 19 0 35 -8 44 -22 13 -19 16 -19 28 -6 12 13 17 13
28 1 7 -7 18 -13 25 -13 6 0 2 7 -9 16 -18 14 -18 15 6 8 38 -10 66 -31 91
-68 18 -26 34 -36 75 -46 28 -7 57 -11 65 -8 7 2 25 -1 38 -8 21 -11 26 -11
37 4 9 11 13 12 14 4 0 -7 11 -18 25 -24 25 -11 35 -38 13 -38 -6 0 -8 -3 -5
-6 4 -4 13 -1 22 6 13 11 14 10 8 -6 -6 -17 -5 -18 13 -4 10 8 25 21 32 28 7
6 17 12 22 12 17 0 30 70 17 91 -6 10 -16 19 -21 19 -4 0 -3 7 5 16 10 13 10
17 -2 25 -8 5 -10 9 -5 9 17 0 46 -33 46 -52 0 -11 4 -16 10 -13 6 4 7 -6 3
-26 -4 -23 -3 -30 5 -25 23 14 -8 -45 -48 -93 l-40 -48 16 -39 16 -39 -25 25
c-13 14 -22 29 -19 34 3 5 0 6 -5 3 -6 -4 -10 -23 -8 -42 4 -38 11 -55 26 -55
5 0 18 -9 29 -20 11 -11 27 -20 35 -20 43 0 105 -78 105 -132 0 -13 -9 -42
-21 -63 -28 -53 -31 -169 -6 -208 9 -14 17 -31 17 -37 0 -20 44 -60 79 -71 20
-6 63 -24 97 -39 54 -25 63 -33 86 -82 24 -50 29 -55 73 -65 44 -10 47 -10 56
14 5 13 9 30 9 36 1 7 11 -1 24 -17 20 -24 27 -26 44 -17 15 8 22 8 25 -2 4
-7 6 -6 6 4 1 20 65 31 81 15 7 -7 10 -3 10 10 0 10 9 25 20 32 12 7 18 17 15
22 -8 14 44 50 63 43 24 -9 42 -35 37 -51 -3 -7 -1 -22 5 -31 8 -15 16 -17 51
-11 27 5 49 4 60 -3 13 -8 24 -8 44 3 21 11 28 11 34 2 6 -10 11 -9 21 3 7 9
20 15 29 14 30 -3 80 25 85 47 4 15 15 24 34 26 15 2 27 9 27 16 0 16 52 43
70 35 10 -3 15 2 15 16 0 17 3 19 18 12 29 -16 102 -30 108 -20 3 5 14 9 25 9
10 0 19 5 19 10 0 13 37 13 45 0 5 -8 11 -7 21 1 11 9 21 9 38 1 18 -8 27 -7
39 5 19 19 60 1 51 -22 -4 -10 0 -15 11 -15 11 0 15 -5 12 -15 -9 -23 12 -29
34 -9 20 18 27 40 9 29 -13 -8 -13 1 2 42 7 18 19 33 28 33 45 1 85 75 99 184
10 67 9 83 -4 103 -11 17 -12 22 -3 21 9 -2 13 15 15 56 2 62 15 88 39 79 8
-3 14 1 14 8 0 8 13 20 29 27 39 17 44 51 20 146 -21 83 -19 139 6 173 8 10
15 26 15 36 0 22 -48 43 -64 27 -15 -15 -58 -12 -83 5 -17 12 -31 13 -62 6
-39 -8 -40 -8 -72 37 -18 24 -44 56 -59 69 -15 13 -30 38 -34 54 -3 16 -16 40
-30 54 -29 29 -25 35 20 25 22 -5 34 -4 34 2 0 16 32 37 47 31 7 -3 13 -15 13
-28z m-3253 -85 c1 -11 -2 -20 -7 -20 -5 0 -10 -10 -13 -22 -3 -21 -4 -21 -12
-5 -4 11 -2 28 5 43 16 29 25 31 27 4z m2455 -105 c1 -17 38 -85 46 -85 4 0
13 -15 20 -32 10 -29 10 -35 -7 -52 -17 -16 -22 -17 -36 -6 -8 7 -13 20 -10
29 3 11 -4 21 -23 29 -41 19 -94 50 -106 62 -8 8 -4 12 12 16 12 4 22 12 22
19 0 24 80 44 82 20z m-352 -64 c0 -6 -4 -13 -10 -16 -5 -3 -10 1 -10 9 0 9 5
16 10 16 6 0 10 -4 10 -9z m-2360 -428 c0 -9 -3 -13 -6 -10 -4 3 -15 2 -25 -4
-16 -8 -19 -6 -19 11 0 15 7 20 25 20 17 0 25 -6 25 -17z m2950 -150 c51 -60
59 -72 50 -78 -5 -3 -11 3 -14 13 -4 12 -16 19 -34 20 -72 2 -84 8 -107 52
l-13 26 46 -2 c38 -2 51 -7 72 -31z m2840 6 c0 -6 -4 -7 -10 -4 -5 3 -10 11
-10 16 0 6 5 7 10 4 6 -3 10 -11 10 -16z m-2185 -49 c3 -5 1 -10 -4 -10 -6 0
-11 5 -11 10 0 6 2 10 4 10 3 0 8 -4 11 -10z m25 -37 c0 -3 -7 -11 -15 -20
-12 -12 -19 -13 -30 -3 -23 19 -18 27 15 27 17 0 30 -2 30 -4z m4260 -247 c0
-2 -8 -10 -17 -17 -16 -13 -17 -12 -4 4 13 16 21 21 21 13z m-1580 -146 c0 -5
-4 -10 -10 -10 -5 0 -10 5 -10 10 0 6 5 10 10 10 6 0 10 -4 10 -10z m-6490
-553 c0 -1 -44 -45 -97 -97 l-98 -95 95 98 c88 90 100 102 100 94z m-715 -97
c10 -11 16 -20 13 -20 -3 0 -13 9 -23 20 -10 11 -16 20 -13 20 3 0 13 -9 23
-20z m80 -80 c10 -11 16 -20 13 -20 -3 0 -13 9 -23 20 -10 11 -16 20 -13 20 3
0 13 -9 23 -20z m365 -95 c-41 -41 -77 -75 -79 -75 -3 0 28 34 69 75 41 41 77
75 79 75 3 0 -28 -34 -69 -75z m-319 48 c13 -16 12 -17 -3 -4 -10 7 -18 15
-18 17 0 8 8 3 21 -13z m170 -195 c-11 -11 -13 -10 -7 0 4 7 2 21 -5 30 -12
15 -11 15 6 0 16 -15 17 -20 6 -30z m-21 -21 c0 -2 -15 -16 -32 -33 l-33 -29
29 33 c28 30 36 37 36 29z m7820 -382 l295 -300 -266 263 c-145 144 -268 260
-272 257 -4 -3 -5 -2 -2 2 3 4 -12 24 -32 46 -21 22 -33 38 -28 36 6 -3 143
-139 305 -304z m-7940 261 c0 -2 -8 -10 -17 -17 -16 -13 -17 -12 -4 4 13 16
21 21 21 13z m7671 -23 c13 -16 12 -17 -3 -4 -10 7 -18 15 -18 17 0 8 8 3 21
-13z m-7310 -30 c13 -16 12 -17 -3 -4 -10 7 -18 15 -18 17 0 8 8 3 21 -13z
m84 -83 c10 -11 16 -20 13 -20 -3 0 -13 9 -23 20 -10 11 -16 20 -13 20 3 0 13
-9 23 -20z m80 -80 c10 -11 16 -20 13 -20 -3 0 -13 9 -23 20 -10 11 -16 20
-13 20 3 0 13 -9 23 -20z m7747 -40 c-20 -36 -32 -38 -32 -7 0 28 7 37 31 37
17 0 17 -2 1 -30z m-8552 -24 c0 -2 -8 -10 -17 -17 -16 -13 -17 -12 -4 4 13
16 21 21 21 13z m-160 -160 c0 -2 -8 -10 -17 -17 -16 -13 -17 -12 -4 4 13 16
21 21 21 13z m-110 -109 c0 -2 -10 -12 -22 -23 l-23 -19 19 23 c18 21 26 27
26 19z m8851 -74 c13 -16 12 -17 -3 -4 -10 7 -18 15 -18 17 0 8 8 3 21 -13z
m-8931 -6 c0 -2 -10 -12 -22 -23 l-23 -19 19 23 c18 21 26 27 26 19z m8995
-57 c10 -11 16 -20 13 -20 -3 0 -13 9 -23 20 -10 11 -16 20 -13 20 3 0 13 -9
23 -20z m-9085 -34 c0 -2 -8 -10 -17 -17 -16 -13 -17 -12 -4 4 13 16 21 21 21
13z m9135 -16 c10 -11 16 -20 13 -20 -3 0 -13 9 -23 20 -10 11 -16 20 -13 20
3 0 13 -9 23 -20z m-7285 -87 l75 -78 -77 75 c-43 41 -78 76 -78 77 0 8 11 -3
80 -74z m7331 40 c13 -16 12 -17 -3 -4 -10 7 -18 15 -18 17 0 8 8 3 21 -13z
m-9261 -17 c0 -2 -8 -10 -17 -17 -16 -13 -17 -12 -4 4 13 16 21 21 21 13z
m9345 -66 c10 -11 16 -20 13 -20 -3 0 -13 9 -23 20 -10 11 -16 20 -13 20 3 0
13 -9 23 -20z m-7310 -59 c-3 -6 -11 -11 -16 -11 -5 0 -4 6 3 14 14 16 24 13
13 -3z m-2155 6 c0 -2 -12 -14 -27 -28 l-28 -24 24 28 c23 25 31 32 31 24z
m9894 -112 c3 -8 1 -15 -4 -15 -6 0 -10 7 -10 15 0 8 2 15 4 15 2 0 6 -7 10
-15z m-181 -843 c-3 -12 -12 -22 -19 -22 -8 0 -20 -12 -26 -27 -7 -16 -17 -35
-24 -43 -7 -8 -14 -24 -17 -35 -3 -11 -4 0 -4 24 0 33 5 45 18 48 10 3 21 17
24 33 3 15 16 32 28 37 27 13 28 12 20 -15z m37 -6 c0 -3 -4 -8 -10 -11 -5 -3
-10 -1 -10 4 0 6 5 11 10 11 6 0 10 -2 10 -4z m-7865 -16 c3 -5 1 -10 -4 -10
-6 0 -11 5 -11 10 0 6 2 10 4 10 3 0 8 -4 11 -10z m7775 -105 c0 -8 -2 -15 -4
-15 -2 0 -6 7 -10 15 -3 8 -1 15 4 15 6 0 10 -7 10 -15z m-7147 -119 c15 -13
27 -33 27 -44 0 -21 -32 -47 -44 -35 -3 3 -6 0 -6 -8 -1 -8 -7 -3 -16 11 l-15
25 6 -32 c6 -29 4 -32 -12 -26 -54 19 -67 62 -32 107 25 32 56 33 92 2z m7162
-26 c-3 -5 -2 -10 2 -10 5 0 8 -12 7 -27 -1 -16 -3 -35 -3 -43 -1 -12 -4 -11
-12 3 -10 18 -12 18 -26 -2 -8 -12 -12 -30 -8 -40 3 -11 -1 -25 -10 -34 -9
-10 -11 -18 -5 -22 5 -3 10 -10 10 -15 0 -17 -59 11 -65 31 -4 10 -11 19 -16
19 -5 0 -9 9 -9 21 0 11 5 17 10 14 6 -3 10 3 10 15 0 16 5 21 22 18 13 -2 23
2 23 7 0 6 6 19 12 30 9 14 13 16 13 5 0 -8 7 -3 16 13 8 15 19 27 25 27 6 0
7 -4 4 -10z m-9705 -315 c13 -14 21 -25 18 -25 -2 0 -15 11 -28 25 -13 14 -21
25 -18 25 2 0 15 -11 28 -25z m76 -77 l29 -33 -32 29 c-18 17 -33 31 -33 33 0
8 8 1 36 -29z m80 -80 l29 -33 -32 29 c-18 17 -33 31 -33 33 0 8 8 1 36 -29z
m1964 9 c0 -1 -71 -72 -157 -157 l-158 -155 155 158 c144 146 160 162 160 154z
m-1884 -89 l29 -33 -32 29 c-18 17 -33 31 -33 33 0 8 8 1 36 -29z m80 -80 l29
-33 -32 29 c-31 28 -38 36 -30 36 2 0 16 -15 33 -32z m8944 18 c0 -2 -8 -10
-17 -17 -16 -13 -17 -12 -4 4 13 16 21 21 21 13z m-6622 -34 c2 -7 -8 -24 -22
-37 -14 -13 -26 -20 -26 -15 0 4 -9 6 -20 3 -16 -4 -20 0 -20 20 0 14 7 30 15
34 23 13 68 10 73 -5z m-2242 -64 l29 -33 -32 29 c-31 28 -38 36 -30 36 2 0
16 -15 33 -32z m8784 18 c0 -2 -8 -10 -17 -17 -16 -13 -17 -12 -4 4 13 16 21
21 21 13z m-40 -39 c0 -2 -17 -19 -37 -38 l-38 -34 34 38 c33 34 41 42 41 34z
m-8664 -59 l29 -33 -32 29 c-31 28 -38 36 -30 36 2 0 16 -15 33 -32z m1324 9
c0 -2 -17 -19 -37 -38 l-38 -34 34 38 c33 34 41 42 41 34z m-1244 -89 l29 -33
-32 29 c-31 28 -38 36 -30 36 2 0 16 -15 33 -32z m1134 -21 c0 -2 -10 -12 -22
-23 l-23 -19 19 23 c18 21 26 27 26 19z m-1054 -59 l29 -33 -32 29 c-18 17
-33 31 -33 33 0 8 8 1 36 -29z m974 -21 c0 -2 -10 -12 -22 -23 l-23 -19 19 23
c18 21 26 27 26 19z m-890 -62 c13 -14 21 -25 18 -25 -2 0 -15 11 -28 25 -13
14 -21 25 -18 25 2 0 15 -11 28 -25z m75 -75 c10 -11 16 -20 13 -20 -3 0 -13
9 -23 20 -10 11 -16 20 -13 20 3 0 13 -9 23 -20z m85 -85 c13 -14 21 -25 18
-25 -2 0 -15 11 -28 25 -13 14 -21 25 -18 25 2 0 15 -11 28 -25z m70 -70 c13
-14 21 -25 18 -25 -2 0 -15 11 -28 25 -13 14 -21 25 -18 25 2 0 15 -11 28 -25z
m7351 -52 c13 -16 12 -17 -3 -4 -10 7 -18 15 -18 17 0 8 8 3 21 -13z m-7261
-38 c13 -14 21 -25 18 -25 -2 0 -15 11 -28 25 -13 14 -21 25 -18 25 2 0 15
-11 28 -25z m76 -77 l29 -33 -32 29 c-31 28 -38 36 -30 36 2 0 16 -15 33 -32z
m319 -320 l270 -273 -272 270 c-150 148 -273 271 -273 272 0 8 24 -16 275
-269z m321 -320 l29 -33 -32 29 c-31 28 -38 36 -30 36 2 0 16 -15 33 -32z m80
-80 l29 -33 -32 29 c-31 28 -38 36 -30 36 2 0 16 -15 33 -32z m80 -80 l29 -33
-32 29 c-31 28 -38 36 -30 36 2 0 16 -15 33 -32z m7315 15 c13 -16 12 -17 -3
-4 -17 13 -22 21 -14 21 2 0 10 -8 17 -17z m-1611 -36 c0 -1 -51 -52 -112
-112 l-113 -110 110 113 c102 104 115 117 115 109z m1675 -27 c10 -11 16 -20
13 -20 -3 0 -13 9 -23 20 -10 11 -16 20 -13 20 3 0 13 -9 23 -20z m-7265 -67
l75 -78 -77 75 c-72 69 -83 80 -75 80 1 0 36 -35 77 -77z m7421 -90 c13 -16
12 -17 -3 -4 -10 7 -18 15 -18 17 0 8 8 3 21 -13z m-9441 -137 c0 -2 -8 -10
-17 -17 -16 -13 -17 -12 -4 4 13 16 21 21 21 13z m2015 -85 c-3 -6 -11 -11
-17 -11 -6 0 -6 6 2 15 14 17 26 13 15 -4z m-35 -66 c-7 -8 -17 -15 -23 -15
-5 0 -2 9 8 20 21 23 35 19 15 -5z m39 -101 c9 -20 9 -30 0 -40 -14 -17 -32
-18 -27 -2 3 7 -4 20 -15 29 -11 9 -17 21 -13 27 13 21 42 13 55 -14z m22
-112 c33 -3 36 -6 32 -30 -1 -15 0 -21 3 -15 3 7 19 27 35 44 27 29 31 30 59
19 16 -7 35 -19 42 -27 10 -13 8 -19 -11 -34 -13 -11 -35 -19 -50 -19 -45 0
-71 -11 -71 -31 0 -31 -31 -99 -46 -99 -7 0 -18 -8 -24 -17 -10 -16 -10 -15
-5 4 5 18 2 21 -14 18 -14 -2 -21 1 -21 11 0 8 3 14 8 14 4 0 13 13 20 29 10
23 11 39 2 71 -6 22 -8 45 -5 50 3 6 1 10 -4 10 -6 0 -11 12 -11 28 l0 27 13
-25 c9 -18 22 -26 48 -28z m431 -214 c-9 -9 -12 -7 -12 12 0 19 3 21 12 12 9
-9 9 -15 0 -24z m-520 -50 c-7 -7 -12 -8 -12 -2 0 6 3 14 7 17 3 4 9 5 12 2 2
-3 -1 -11 -7 -17z m58 -14 c0 -8 -4 -12 -10 -9 -5 3 -10 10 -10 16 0 5 5 9 10
9 6 0 10 -7 10 -16z m-40 -28 c0 -3 -4 -8 -10 -11 -5 -3 -10 -1 -10 4 0 6 5
11 10 11 6 0 10 -2 10 -4z m90 -860 c0 -2 -8 -10 -17 -17 -16 -13 -17 -12 -4
4 13 16 21 21 21 13z m3710 -9 c0 -2 -17 -19 -37 -38 l-38 -34 34 38 c33 34
41 42 41 34z m-80 -80 c0 -2 -17 -19 -37 -38 l-38 -34 34 38 c33 34 41 42 41
34z m-3790 -70 c0 -2 -10 -12 -22 -23 l-23 -19 19 23 c18 21 26 27 26 19z
m3570 -152 c-80 -80 -144 -147 -142 -150 1 -3 1 -4 -1 -2 -1 1 -16 -10 -32
-25 -30 -28 -39 -28 -55 2 -7 13 -5 21 8 31 15 13 16 12 3 -3 -15 -20 -2 -24
18 -5 7 6 12 8 11 2 -2 -5 -2 -14 -1 -18 0 -4 74 64 164 152 89 88 164 161
167 161 3 0 -60 -65 -140 -145z m-105 -144 c3 -5 2 -12 -3 -15 -5 -3 -9 1 -9
9 0 17 3 19 12 6z m-4700 -71 c10 -11 16 -20 13 -20 -3 0 -13 9 -23 20 -10 11
-16 20 -13 20 3 0 13 -9 23 -20z m835 -33 c0 -2 -17 -19 -37 -38 l-38 -34 34
38 c33 34 41 42 41 34z m-755 -47 c10 -11 16 -20 13 -20 -3 0 -13 9 -23 20
-10 11 -16 20 -13 20 3 0 13 -9 23 -20z m80 -80 c10 -11 16 -20 13 -20 -3 0
-13 9 -23 20 -10 11 -16 20 -13 20 3 0 13 -9 23 -20z m555 6 c0 -2 -8 -10 -17
-17 -16 -13 -17 -12 -4 4 13 16 21 21 21 13z m-500 -61 c13 -14 21 -25 18 -25
-2 0 -15 11 -28 25 -13 14 -21 25 -18 25 2 0 15 -11 28 -25z m400 -40 c-24
-25 -46 -45 -49 -45 -3 0 15 20 39 45 24 25 46 45 49 45 3 0 -15 -20 -39 -45z
m-60 -59 c0 -2 -8 -10 -17 -17 -16 -13 -17 -12 -4 4 13 16 21 21 21 13z m-195
-46 c10 -11 16 -20 13 -20 -3 0 -13 9 -23 20 -10 11 -16 20 -13 20 3 0 13 -9
23 -20z m115 -34 c0 -2 -8 -10 -17 -17 -16 -13 -17 -12 -4 4 13 16 21 21 21
13z m7311 -33 c13 -16 12 -17 -3 -4 -10 7 -18 15 -18 17 0 8 8 3 21 -13z
m-7350 -10 c7 -10 9 -15 5 -11 -5 4 -16 2 -25 -5 -14 -10 -14 -10 -4 4 7 9 10
19 6 22 -3 4 -4 7 -1 7 3 0 12 -8 19 -17z m40 -40 c13 -16 12 -17 -3 -4 -17
13 -22 21 -14 21 2 0 10 -8 17 -17z m-81 3 c0 -2 -8 -10 -17 -17 -16 -13 -17
-12 -4 4 13 16 21 21 21 13z m-50 -50 c0 -2 -8 -10 -17 -17 -16 -13 -17 -12
-4 4 13 16 21 21 21 13z m260 -81 c47 -47 82 -85 80 -85 -3 0 -43 38 -90 85
-47 47 -82 85 -80 85 3 0 43 -38 90 -85z m-970 -629 c0 -2 -8 -10 -17 -17 -16
-13 -17 -12 -4 4 13 16 21 21 21 13z m5435 -176 c72 -74 127 -132 123 -130 -3
3 -66 64 -140 136 -73 72 -139 130 -146 128 -7 -1 -8 0 -2 3 7 3 7 10 -2 21
-36 45 51 -37 167 -158z m1695 -53 c0 -2 -12 -14 -27 -28 l-28 -24 24 28 c23
25 31 32 31 24z m-1768 -32 c7 -9 18 -21 24 -28 11 -13 34 -74 34 -91 0 -6 -5
-4 -11 4 -9 13 -10 13 -6 0 2 -8 12 -14 21 -14 10 1 16 -6 16 -18 0 -16 3 -18
14 -9 11 9 15 8 21 -6 5 -10 7 -21 7 -25 -1 -5 2 -8 7 -8 5 0 11 -13 14 -29 5
-24 10 -28 28 -24 18 5 21 3 16 -10 -4 -11 -1 -17 8 -17 28 0 32 -87 5 -112
-16 -15 -19 -15 -24 -2 -3 8 -10 13 -15 10 -5 -3 -12 1 -15 9 -3 9 -17 20 -31
25 -25 10 -25 10 -10 47 14 37 14 37 -3 17 -20 -24 -88 -27 -101 -5 -5 8 -11
9 -15 3 -3 -5 -25 -12 -48 -16 -23 -4 -47 -11 -53 -16 -6 -5 -24 -11 -40 -14
-37 -7 -77 -56 -45 -56 6 0 10 -19 10 -42 0 -29 7 -49 22 -65 16 -17 19 -26
11 -34 -12 -12 3 -59 19 -59 22 0 59 -47 64 -82 4 -21 10 -38 15 -38 5 0 9 -6
9 -14 0 -7 9 -16 20 -19 29 -7 28 -57 -1 -57 -11 0 -18 -4 -15 -9 3 -5 -1 -14
-9 -21 -12 -10 -15 -10 -15 2 0 11 -7 14 -25 10 -14 -2 -25 -11 -25 -18 0 -8
-4 -14 -8 -14 -12 0 -11 32 0 47 7 8 5 18 -7 29 -10 10 -14 25 -11 39 7 29
-11 50 -55 64 -27 9 -38 19 -46 44 -5 18 -7 41 -3 52 5 13 -1 25 -17 39 -19
17 -24 33 -27 81 -5 98 4 117 79 154 43 22 71 43 80 62 17 31 20 53 6 45 -11
-7 -18 39 -11 84 3 22 13 38 26 45 11 6 35 25 53 43 37 36 45 38 63 17z m1708
-29 c0 -2 -8 -10 -17 -17 -16 -13 -17 -12 -4 4 13 16 21 21 21 13z m2211 -33
c13 -16 12 -17 -3 -4 -10 7 -18 15 -18 17 0 8 8 3 21 -13z m-8836 -173 c3 -5
1 -10 -4 -10 -6 0 -11 5 -11 10 0 6 2 10 4 10 3 0 8 -4 11 -10z m-55 -30 c0
-5 -4 -10 -10 -10 -5 0 -10 5 -10 10 0 6 5 10 10 10 6 0 10 -4 10 -10z m20
-36 c0 -8 -5 -12 -10 -9 -6 4 -8 11 -5 16 9 14 15 11 15 -7z m34 -103 c-5 -5
-44 30 -44 40 0 4 11 -2 24 -14 14 -12 23 -24 20 -26z m2258 -131 c7 -16 16
-30 20 -30 16 0 -8 -44 -38 -66 -62 -48 -100 -14 -69 62 12 28 49 64 66 64 4
0 13 -13 21 -30z m-175 -51 c30 -19 34 -26 31 -55 -2 -18 0 -30 4 -28 4 3 8 0
8 -5 0 -6 -7 -11 -15 -11 -8 0 -16 -10 -17 -22 -1 -13 -2 -30 -3 -39 -2 -35
-35 -69 -66 -69 -37 0 -79 39 -79 73 0 14 -7 30 -15 37 -18 15 -19 79 -2 102
8 9 33 19 56 22 24 3 46 8 49 11 8 8 12 7 49 -16z m1457 -191 c10 -39 6 -44
-14 -19 -23 27 -25 41 -6 41 7 0 16 -10 20 -22z m-34 -18 c0 -5 -2 -10 -4 -10
-3 0 -8 5 -11 10 -3 6 -1 10 4 10 6 0 11 -4 11 -10z m-2670 -30 c0 -5 -5 -10
-11 -10 -5 0 -7 5 -4 10 3 6 8 10 11 10 2 0 4 -4 4 -10z m2632 -72 c-7 -7 -12
-8 -12 -2 0 14 12 26 19 19 2 -3 -1 -11 -7 -17z"/>
<path d="M4286 12198 c3 -4 1 -8 -4 -8 -15 0 -12 -58 4 -64 8 -3 14 -1 14 5 0
6 5 7 11 4 6 -4 9 -1 8 6 -2 8 2 24 9 37 7 12 9 22 5 23 -4 0 -18 2 -30 3 -12
1 -20 -1 -17 -6z"/>
<path d="M4321 12103 c-6 -12 -8 -23 -5 -23 15 0 44 22 44 34 0 21 -28 14 -39
-11z"/>
<path d="M5215 12120 c3 -5 8 -10 11 -10 2 0 4 5 4 10 0 6 -5 10 -11 10 -5 0
-7 -4 -4 -10z"/>
<path d="M4311 11839 c-1 -9 -8 -22 -15 -29 -20 -15 -6 -51 33 -89 38 -38 48
-27 15 16 -19 25 -22 33 -10 33 9 0 16 5 16 10 0 6 -4 10 -10 10 -5 0 -14 15
-19 33 -5 17 -10 25 -10 16z"/>
<path d="M7969 11766 c-2 -3 -17 -6 -32 -8 -19 -3 -33 -15 -47 -40 -13 -25
-16 -38 -8 -40 7 -3 -6 -21 -27 -42 -99 -93 -108 -101 -102 -83 9 25 6 23
-124 -80 -23 -18 -51 -34 -62 -34 -12 -1 -42 -2 -67 -3 l-45 -1 -8 -45 c-5
-25 -9 -62 -9 -82 -1 -21 -5 -38 -10 -38 -4 0 -8 -6 -8 -14 0 -8 -4 -16 -10
-18 -5 -1 -13 -28 -18 -59 -8 -51 -7 -58 11 -70 11 -8 26 -21 35 -29 13 -12
14 -12 8 7 -4 13 -2 24 5 29 8 5 9 3 4 -6 -5 -8 -1 -18 10 -27 14 -9 15 -13 4
-13 -12 0 -12 -2 0 -9 8 -5 21 -7 28 -4 11 4 12 8 3 13 -8 5 5 24 39 57 60 59
69 57 11 -2 -48 -49 -45 -70 8 -80 20 -3 45 -8 55 -11 11 -3 17 0 17 10 0 20
44 15 70 -9 11 -10 20 -13 20 -7 0 7 4 12 10 12 5 0 7 -7 4 -15 -4 -10 0 -15
15 -15 12 0 21 6 21 15 0 18 12 19 28 3 8 -8 15 -9 20 -3 10 14 49 35 65 35 7
0 19 9 26 19 11 15 32 21 93 26 55 5 78 11 78 20 0 10 7 11 31 5 21 -6 31 -5
35 3 3 8 28 12 73 11 56 -1 73 -6 90 -23 18 -18 19 -22 6 -27 -18 -7 -19 -33
-1 -56 17 -23 26 -23 26 2 0 40 95 20 154 -32 11 -10 28 -18 38 -18 10 0 18
-6 18 -14 0 -21 14 -27 67 -31 70 -6 104 -15 97 -27 -4 -6 -2 -8 3 -5 6 4 27
0 46 -8 19 -8 37 -12 39 -9 3 2 11 -2 18 -11 7 -8 22 -15 34 -15 41 -1 121
-28 205 -68 19 -10 40 -16 48 -14 7 1 24 -5 37 -13 14 -9 33 -15 43 -13 10 2
26 -7 36 -19 14 -18 23 -21 36 -13 13 6 24 4 40 -6 12 -9 29 -13 37 -10 9 3
24 1 35 -5 24 -12 88 8 90 28 1 7 3 18 4 23 1 6 3 16 4 24 0 8 14 17 30 21 28
6 29 7 16 32 -8 15 -12 30 -9 35 3 5 2 8 -3 7 -20 -4 -27 2 -13 12 13 9 13 10
0 6 -8 -2 -30 7 -48 20 -18 14 -41 26 -50 27 -9 2 -17 7 -17 12 0 5 -11 21
-23 34 -13 14 -30 37 -38 53 -8 15 -19 27 -24 27 -5 0 -16 7 -24 16 -9 9 -23
17 -30 18 -8 1 -24 11 -37 23 -72 65 -99 83 -136 89 -38 6 -41 4 -54 -25 -8
-17 -19 -31 -25 -31 -7 0 -9 -10 -6 -25 3 -19 0 -25 -13 -25 -12 0 -15 -5 -11
-16 5 -13 2 -15 -16 -9 -57 18 -76 17 -87 -3 -6 -11 -19 -22 -30 -25 -16 -4
-20 0 -20 22 0 14 -2 43 -5 64 -3 22 -1 37 5 37 13 0 8 62 -6 72 -5 4 -10 13
-10 20 0 7 -9 14 -20 16 -29 6 -101 39 -117 55 -66 64 -114 75 -185 41 -79
-37 -151 -32 -222 17 -27 19 -57 48 -65 64 -21 43 -51 172 -55 233 -1 8 -15
27 -32 43 -24 23 -41 29 -73 29 -24 0 -45 -2 -47 -4z m1281 -1006 c0 -5 -2
-10 -4 -10 -3 0 -8 5 -11 10 -3 6 -1 10 4 10 6 0 11 -4 11 -10z"/>
<path d="M4380 11681 c0 -6 4 -13 10 -16 6 -3 7 1 4 9 -7 18 -14 21 -14 7z"/>
<path d="M4435 11620 c3 -5 8 -10 11 -10 2 0 4 5 4 10 0 6 -5 10 -11 10 -5 0
-7 -4 -4 -10z"/>
<path d="M5044 11510 c-26 -10 -41 -30 -23 -30 8 0 4 -9 -8 -22 -30 -34 -35
-66 -12 -78 11 -6 19 -21 19 -36 0 -14 4 -23 9 -20 5 4 12 0 15 -6 3 -7 4 -1
2 15 -4 30 9 37 16 9 3 -10 13 -19 22 -19 14 0 16 6 11 26 -3 14 -8 55 -10 90
-5 72 -11 82 -41 71z"/>
<path d="M5132 11220 c-44 -10 -48 -16 -27 -40 10 -11 21 -17 24 -13 3 5 16
14 29 21 19 10 22 10 22 -3 0 -9 7 -18 15 -21 8 -4 15 -13 15 -21 0 -21 39
-73 55 -73 7 0 16 6 18 13 4 9 6 9 6 -1 1 -7 6 -10 11 -7 6 4 2 19 -12 38 -24
34 -109 118 -118 116 -3 -1 -20 -5 -38 -9z"/>
<path d="M4040 11134 c0 -14 3 -14 15 -4 8 7 15 14 15 16 0 2 -7 4 -15 4 -8 0
-15 -7 -15 -16z"/>
<path d="M5006 11143 c-11 -11 -6 -23 9 -23 8 0 15 4 15 9 0 13 -16 22 -24 14z"/>
<path d="M5935 11110 c-3 -5 1 -10 10 -10 9 0 13 5 10 10 -3 6 -8 10 -10 10
-2 0 -7 -4 -10 -10z"/>
<path d="M3414 10806 c-3 -8 -4 -22 -2 -31 2 -13 9 -10 32 14 l30 31 -27 0
c-15 0 -30 -6 -33 -14z"/>
<path d="M3446 10780 c-33 -37 -36 -45 -36 -103 0 -34 4 -67 8 -73 4 -7 88
-13 242 -18 129 -3 262 -10 294 -15 50 -8 65 -7 95 8 20 10 50 22 68 25 18 4
43 16 57 27 22 18 30 19 67 9 30 -8 54 -8 88 -1 25 6 60 9 76 7 36 -5 107 -39
123 -59 10 -12 5 -15 -29 -20 -23 -3 -45 -9 -48 -14 -11 -15 -48 -36 -93 -52
-18 -7 -28 -18 -28 -31 0 -11 -4 -20 -9 -20 -6 0 -8 9 -6 19 3 18 1 19 -20 9
l-24 -11 37 -24 c49 -33 168 -150 193 -190 72 -115 117 -416 126 -836 4 -209
9 -295 16 -288 13 13 55 -91 63 -154 3 -22 8 -51 10 -65 3 -14 10 -54 15 -90
6 -36 17 -77 25 -92 8 -14 14 -33 14 -41 0 -8 6 -20 14 -27 8 -6 12 -19 8 -28
-4 -12 5 -9 30 11 20 15 38 27 40 27 7 0 3 -48 -4 -56 -15 -14 -8 -35 18 -59
14 -13 32 -21 39 -19 7 3 16 1 20 -5 3 -6 2 -11 -3 -11 -6 0 -1 -17 9 -37 11
-21 17 -44 14 -51 -3 -8 0 -10 7 -6 8 5 9 2 5 -9 -4 -10 -1 -17 5 -17 6 0 9
-3 5 -6 -3 -3 -16 1 -29 10 -12 9 -27 16 -33 16 -6 0 -6 -3 1 -8 17 -11 28
-52 13 -52 -8 0 -9 -11 -4 -37 8 -41 8 -40 4 -128 -2 -53 3 -68 40 -137 45
-85 47 -102 4 -35 -15 23 -31 44 -35 47 -4 3 -12 18 -18 34 l-11 29 -15 -21
c-8 -12 -13 -26 -9 -31 3 -5 -8 -18 -25 -27 -16 -10 -30 -22 -30 -25 0 -4 -9
-10 -20 -14 -11 -3 -25 -17 -32 -29 -7 -13 -23 -41 -35 -63 -12 -22 -21 -53
-20 -69 1 -19 -2 -28 -11 -26 -9 1 -11 -8 -7 -35 3 -21 7 -62 9 -90 1 -29 5
-56 9 -59 4 -4 7 -17 7 -28 0 -17 -2 -18 -10 -6 -7 11 -10 7 -10 -17 0 -18 4
-33 9 -33 5 0 11 -22 15 -48 3 -27 9 -52 13 -56 4 -4 8 -21 10 -39 1 -18 8
-45 17 -61 11 -22 12 -33 4 -43 -6 -8 -7 -17 -3 -21 4 -4 10 -1 12 6 8 22 23
2 17 -23 -3 -12 -1 -26 5 -30 6 -3 9 -11 5 -16 -3 -6 4 -13 16 -16 13 -3 19
-11 16 -20 -3 -8 1 -24 8 -36 29 -44 58 -133 67 -207 6 -41 15 -104 20 -140
27 -180 46 -455 31 -446 -11 6 -4 -131 14 -313 14 -138 15 -175 4 -228 -7 -34
-10 -69 -7 -75 2 -7 1 -73 -2 -146 -4 -95 -3 -132 5 -132 15 0 36 -25 27 -33
-3 -4 -11 -3 -17 2 -8 7 -10 -11 -8 -65 5 -83 -15 -271 -29 -280 -5 -3 7 -25
27 -49 27 -34 33 -48 26 -61 -9 -15 -11 -15 -29 3 -43 43 -49 37 -48 -43 2
-64 0 -72 -13 -61 -13 10 -14 8 -8 -11 4 -12 4 -22 -1 -22 -11 0 -8 -96 5
-142 10 -39 5 -47 -17 -25 -10 10 -11 9 -6 -4 4 -10 1 -20 -4 -24 -6 -3 -8
-12 -4 -18 12 -19 12 -91 1 -105 -24 -29 3 -21 38 11 37 34 38 35 21 60 -19
29 -22 47 -8 47 12 0 49 -63 58 -98 5 -22 4 -25 -8 -16 -22 16 -59 5 -59 -18
0 -6 7 -5 16 3 15 12 16 11 9 -11 -4 -14 -10 -31 -13 -39 -4 -10 -1 -12 7 -6
10 6 12 0 6 -23 -4 -19 -2 -33 5 -37 7 -4 8 -10 4 -14 -5 -3 -20 -27 -33 -53
-13 -27 -28 -48 -32 -48 -13 0 -11 -48 2 -52 6 -2 14 -56 19 -133 9 -134 33
-294 50 -325 14 -26 15 -259 1 -294 -8 -19 -8 -39 -2 -62 9 -32 0 -47 -14 -24
-10 16 -27 0 -22 -21 3 -10 1 -19 -3 -21 -5 -2 -10 -9 -12 -17 -5 -23 -31 -50
-41 -44 -6 3 -7 1 -3 -6 9 -13 -53 -83 -66 -75 -5 4 -12 -3 -15 -15 -3 -12
-12 -21 -20 -21 -10 0 -13 6 -9 16 3 8 2 12 -4 9 -6 -3 -10 -12 -10 -20 0 -7
-6 -16 -12 -19 -7 -3 -4 -4 6 -3 10 1 21 -4 24 -12 3 -10 0 -12 -11 -8 -11 4
-14 2 -10 -9 6 -17 7 -17 -34 -5 -31 9 -32 8 -23 -15 5 -13 6 -24 2 -24 -4 0
0 -5 8 -10 13 -8 12 -10 -3 -10 -10 0 -20 7 -23 15 -4 8 -10 13 -14 10 -5 -3
-15 2 -23 10 -18 17 -31 20 -22 5 3 -5 1 -10 -4 -10 -6 0 -11 8 -12 18 0 14
-2 14 -8 -3 -5 -12 -4 -23 3 -27 7 -5 5 -11 -6 -20 -10 -7 -22 -35 -28 -61
-21 -95 -52 -147 -144 -245 -86 -91 -232 -174 -371 -210 -115 -31 -234 -42
-449 -42 l-189 0 7 -52 c3 -29 6 -79 6 -110 l0 -58 1048 2 c576 1 1022 4 992
8 -30 4 -50 8 -45 9 6 1 21 5 35 7 14 3 27 9 28 14 2 6 9 10 16 10 12 0 126
82 166 119 35 32 64 51 80 51 22 1 50 25 50 44 0 18 11 21 26 6 6 -6 24 -4 49
4 22 8 68 17 103 21 40 5 65 12 69 21 3 10 9 11 17 5 16 -13 47 -16 80 -7 23
6 27 9 15 17 -7 5 -9 9 -3 9 6 0 17 -7 24 -16 11 -12 11 -15 0 -12 -7 2 -15
-3 -17 -9 -3 -9 6 -13 29 -13 23 0 37 -6 46 -21 10 -15 16 -18 26 -10 8 6 22
8 31 4 14 -5 16 -3 10 7 -5 8 -4 11 3 6 6 -3 13 -2 17 4 3 5 -6 15 -22 21 -27
10 -74 38 -180 107 -75 48 -157 168 -194 281 -33 103 -55 228 -65 365 -7 98
-7 100 -47 145 -41 46 -41 46 -4 12 l37 -35 0 1179 0 1179 -37 -35 -38 -34 38
40 37 41 0 223 c0 207 1 222 18 217 42 -13 175 -39 262 -50 l95 -13 133 130
c117 117 157 163 120 141 -8 -5 -8 -1 1 10 12 14 12 19 2 26 -11 6 -11 9 0 13
10 4 10 6 -2 6 -9 1 -77 10 -150 21 -74 12 -168 25 -209 30 -41 5 -119 17
-172 26 l-98 17 0 1391 0 1390 -52 -49 -53 -50 53 55 52 56 0 381 0 381 108
25 c276 65 502 96 707 97 66 0 71 2 110 38 l40 37 -33 -36 -33 -36 38 -6 c21
-4 61 -7 89 -7 222 0 685 -162 844 -295 24 -20 61 -47 84 -60 55 -33 249 -240
293 -312 19 -32 41 -65 48 -73 23 -25 125 -210 132 -238 3 -15 19 -55 34 -88
63 -142 126 -361 150 -529 14 -89 19 -736 7 -729 -5 3 -8 -4 -8 -16 0 -79 -81
-349 -143 -475 -19 -39 -38 -81 -42 -94 -13 -44 -149 -238 -246 -353 -21 -26
-39 -53 -39 -60 0 -9 3 -9 10 2 5 8 10 11 10 5 0 -5 -4 -16 -9 -24 -5 -8 -3
-24 5 -40 20 -38 17 -49 -16 -66 -28 -14 -30 -14 -42 7 -7 13 -11 27 -10 31 1
5 -8 5 -20 1 l-23 -7 20 23 c11 13 -17 -6 -62 -43 -94 -75 -158 -117 -293
-193 -102 -57 -267 -111 -435 -141 -97 -18 -362 -23 -491 -10 -71 8 -72 8 -76
-17 -4 -21 22 -51 176 -205 l181 -181 135 -4 c74 -2 110 -1 80 2 l-55 7 40 7
c22 4 54 8 71 8 20 0 34 6 38 16 5 14 9 14 22 3 13 -11 17 -11 25 2 6 11 22
15 54 14 25 -1 48 -5 52 -9 11 -10 105 -7 98 4 -8 13 11 13 36 0 10 -6 19 -7
19 -3 0 13 77 43 108 43 16 0 32 3 36 7 4 4 13 8 19 9 37 3 79 19 90 34 7 10
25 17 44 17 18 0 41 7 51 16 10 10 28 17 40 17 12 0 22 5 22 11 0 7 10 9 25 5
16 -4 25 -2 25 5 0 6 6 9 13 6 15 -5 39 18 29 29 -4 4 1 4 11 1 12 -5 28 0 44
13 14 11 41 22 62 25 20 3 44 11 55 16 12 7 22 7 28 1 13 -13 38 -4 38 14 0 7
19 19 43 25 23 7 49 18 57 25 8 7 27 16 42 19 16 4 25 11 22 16 -3 5 5 9 18 9
14 0 33 7 44 15 10 8 40 17 66 21 36 5 45 10 41 21 -5 12 -1 14 15 9 70 -20
69 -20 47 -1 -11 9 -14 14 -7 10 7 -4 19 -1 27 5 8 7 15 9 15 5 0 -4 6 -2 13
4 8 6 16 8 20 5 3 -3 3 4 0 15 -4 17 -2 20 11 15 9 -3 16 -10 16 -15 0 -5 4
-9 10 -9 5 0 6 7 3 17 -4 11 -3 14 6 9 7 -5 18 0 26 10 8 11 15 15 15 10 0 -5
6 -3 14 3 11 9 20 10 35 1 17 -8 21 -8 21 4 0 7 6 14 13 13 38 -1 57 5 57 18
0 8 8 15 18 15 10 0 41 6 69 13 36 10 55 11 63 3 7 -7 10 -6 10 2 0 7 9 12 20
12 11 0 20 -4 20 -8 0 -5 10 -8 23 -7 13 2 21 8 19 16 -2 8 0 11 3 7 20 -20
140 87 129 116 -3 8 -1 17 5 21 7 4 9 -1 5 -12 -4 -11 4 -6 21 12 14 17 36 41
48 54 12 13 52 64 89 113 51 69 65 94 58 107 -59 106 -72 168 -15 71 16 -27
32 -50 35 -50 9 0 84 132 129 225 41 86 130 362 156 485 66 317 72 677 15 964
-27 135 -41 180 -52 164 -6 -10 -8 -10 -8 2 0 8 -11 38 -25 65 -27 54 -29 65
-17 65 5 0 16 -15 25 -32 14 -26 16 -28 11 -8 -3 14 -12 39 -20 55 -7 17 -22
57 -33 91 -22 70 -78 184 -128 263 -27 43 -37 51 -45 40 -8 -11 -9 -10 -4 4 9
29 -39 110 -108 182 -16 16 -48 55 -70 85 -55 72 -226 243 -298 297 -31 23
-72 57 -91 75 -19 18 -53 44 -76 58 -24 14 -66 40 -93 58 -28 18 -81 49 -117
69 -36 20 -73 42 -81 48 -8 7 -48 24 -88 39 -40 14 -86 33 -104 42 -47 24
-237 90 -325 113 -185 47 -564 112 -776 132 l-128 13 -47 -45 -47 -44 39 42
c39 42 39 42 15 47 -89 21 -1019 35 -1019 16 0 -5 6 -10 13 -10 8 0 21 -8 30
-18 19 -20 23 -62 7 -62 -5 0 -10 -7 -10 -16 0 -12 -6 -15 -26 -10 -20 5 -27
3 -31 -13 -5 -19 -7 -19 -34 -6 -15 8 -33 15 -39 15 -6 0 -19 7 -28 16 -15 15
-14 19 4 53 11 22 28 37 42 39 12 2 22 8 22 13 0 6 -65 9 -166 8 l-167 -1 74
-76 74 -77 -80 78 c-71 67 -85 77 -115 76 -36 -1 -103 -16 -85 -18 11 -1 -52
-42 -101 -65 -32 -15 -46 -36 -48 -68 -2 -27 -19 -26 -33 2 -7 14 -33 48 -59
75 -26 28 -43 44 -40 38 9 -16 -11 -17 -53 -2 -21 7 -28 14 -21 19 23 14 -103
19 -505 20 l-410 0 -24 -26 c-18 -19 -26 -22 -32 -12 -9 13 -10 11 -13 -14 -1
-7 -10 -12 -21 -10 -61 8 -77 7 -82 -5 -3 -7 -13 -13 -22 -13 -25 0 -62 30
-55 43 4 7 1 6 -7 -1 -12 -11 -10 -16 10 -33 21 -17 20 -24 -3 -20 -4 1 -14
-4 -22 -10 -10 -8 -14 -8 -14 0 0 6 5 11 10 11 6 0 10 5 10 11 0 6 -6 9 -13 6
-9 -3 -12 5 -12 27 2 39 -2 47 -21 39 -12 -5 -12 -8 3 -20 10 -8 12 -12 5 -8
-10 5 -11 0 -6 -19 4 -16 2 -26 -5 -26 -6 0 -11 7 -11 15 0 18 -12 19 -28 3
-9 -9 -12 -9 -12 1 0 7 -4 9 -10 6 -5 -3 -10 -1 -10 4 0 6 5 11 12 11 6 0 8 3
5 7 -4 3 -2 12 4 19 8 10 -41 13 -259 14 l-269 1 -37 -41z m944 10 c0 -5 -4
-10 -10 -10 -5 0 -10 5 -10 10 0 6 5 10 10 10 6 0 10 -4 10 -10z m-419 -33
c-13 -13 -26 -3 -16 12 3 6 11 8 17 5 6 -4 6 -10 -1 -17z m29 -17 c0 -7 6 -7
19 -1 15 9 20 7 24 -10 5 -18 2 -20 -18 -15 -13 3 -26 2 -30 -4 -8 -13 -35 -1
-35 16 0 8 6 11 17 7 11 -4 14 -3 9 5 -4 7 -2 12 3 12 6 0 11 -5 11 -10z m-66
-51 c-3 -5 -10 -7 -15 -3 -5 3 -7 10 -3 15 3 5 10 7 15 3 5 -3 7 -10 3 -15z
m3186 8 c0 -2 -17 -19 -37 -38 l-38 -34 34 38 c33 34 41 42 41 34z m-1150 -72
c19 -19 32 -35 29 -35 -3 0 -20 16 -39 35 -19 19 -32 35 -29 35 3 0 20 -16 39
-35z m1070 -8 c0 -2 -15 -16 -32 -33 l-33 -29 29 33 c28 30 36 37 36 29z
m-990 -72 c19 -19 32 -35 29 -35 -3 0 -20 16 -39 35 -19 19 -32 35 -29 35 3 0
20 -16 39 -35z m910 -9 c0 -2 -8 -10 -17 -17 -16 -13 -17 -12 -4 4 13 16 21
21 21 13z m-849 -53 c13 -16 12 -17 -3 -4 -17 13 -22 21 -14 21 2 0 10 -8 17
-17z m40 -40 c13 -16 12 -17 -3 -4 -10 7 -18 15 -18 17 0 8 8 3 21 -13z m729
13 c0 -2 -8 -10 -17 -17 -16 -13 -17 -12 -4 4 13 16 21 21 21 13z m-640 -101
c35 -36 62 -65 59 -65 -2 0 -34 29 -69 65 -35 36 -62 65 -59 65 2 0 34 -29 69
-65z m600 61 c0 -2 -8 -10 -17 -17 -16 -13 -17 -12 -4 4 13 16 21 21 21 13z
m2690 -921 c-41 -41 -77 -75 -79 -75 -3 0 28 34 69 75 41 41 77 75 79 75 3 0
-28 -34 -69 -75z m-110 -109 c0 -2 -8 -10 -17 -17 -16 -13 -17 -12 -4 4 13 16
21 21 21 13z m-70 -69 c0 -2 -10 -12 -22 -23 l-23 -19 19 23 c18 21 26 27 26
19z m-3620 -10 c0 -2 -10 -12 -22 -23 l-23 -19 19 23 c18 21 26 27 26 19z
m-1060 -47 c0 -5 -7 -10 -16 -10 -8 0 -12 5 -9 10 3 6 10 10 16 10 5 0 9 -4 9
-10z m940 -75 c-41 -41 -77 -75 -79 -75 -3 0 28 34 69 75 41 41 77 75 79 75 3
0 -28 -34 -69 -75z m-90 -88 c0 -2 -17 -19 -37 -38 l-38 -34 34 38 c33 34 41
42 41 34z m20 -347 c6 -11 8 -20 6 -20 -3 0 -10 9 -16 20 -6 11 -8 20 -6 20 3
0 10 -9 16 -20z m50 -90 c6 -11 8 -20 6 -20 -3 0 -10 9 -16 20 -6 11 -8 20 -6
20 3 0 10 -9 16 -20z m3530 -1165 c19 -19 32 -35 29 -35 -3 0 -20 16 -39 35
-19 19 -32 35 -29 35 3 0 20 -16 39 -35z m-3539 -52 c13 -16 12 -17 -3 -4 -10
7 -18 15 -18 17 0 8 8 3 21 -13z m3759 -168 c96 -96 173 -175 170 -175 -3 0
-84 79 -180 175 -96 96 -173 175 -170 175 3 0 84 -79 180 -175z m-3679 88 c13
-16 12 -17 -3 -4 -10 7 -18 15 -18 17 0 8 8 3 21 -13z m99 -100 l75 -78 -77
75 c-72 69 -83 80 -75 80 1 0 36 -35 77 -77z m3476 -471 c-17 -16 -18 -16 -5
5 7 12 15 20 18 17 3 -2 -3 -12 -13 -22z m-991 -352 c3 -5 1 -10 -4 -10 -6 0
-11 5 -11 10 0 6 2 10 4 10 3 0 8 -4 11 -10z m-705 -245 c0 -2 -7 -5 -15 -9
-9 -3 -15 0 -15 9 0 9 6 12 15 9 8 -4 15 -7 15 -9z m-1780 -448 c0 -2 -17 -19
-37 -38 l-38 -34 34 38 c33 34 41 42 41 34z m-90 -91 c0 -2 -8 -10 -17 -17
-16 -13 -17 -12 -4 4 13 16 21 21 21 13z m-70 -69 c0 -2 -17 -19 -37 -38 l-38
-34 34 38 c33 34 41 42 41 34z m-160 -160 c0 -2 -10 -12 -22 -23 l-23 -19 19
23 c18 21 26 27 26 19z m-380 -752 c0 -5 -9 5 -20 23 -26 42 -26 56 0 17 11
-16 20 -34 20 -40z m510 -940 c19 -19 32 -35 29 -35 -3 0 -20 16 -39 35 -19
19 -32 35 -29 35 3 0 20 -16 39 -35z m120 -122 l75 -78 -77 75 c-43 41 -78 76
-78 77 0 8 11 -3 80 -74z m-1046 -549 c8 -21 8 -24 -3 -24 -5 0 -11 9 -14 20
-6 24 8 27 17 4z m1614 -494 c-7 -10 -14 -17 -17 -15 -4 4 18 35 25 35 2 0 -1
-9 -8 -20z m-1534 -215 c-4 -8 -8 -15 -10 -15 -2 0 -4 7 -4 15 0 8 4 15 10 15
5 0 7 -7 4 -15z m436 -40 c10 -12 10 -15 -4 -15 -9 0 -16 7 -16 15 0 8 2 15 4
15 2 0 9 -7 16 -15z m-810 1 c0 -11 -19 -15 -25 -6 -3 5 1 10 9 10 9 0 16 -2
16 -4z m435 -6 c4 -6 -28 -10 -89 -10 -57 0 -96 4 -96 10 0 6 36 10 89 10 50
0 93 -4 96 -10z"/>
<path d="M4165 10810 c3 -5 8 -10 11 -10 2 0 4 5 4 10 0 6 -5 10 -11 10 -5 0
-7 -4 -4 -10z"/>
<path d="M4260 10805 c-11 -13 -10 -14 4 -9 9 3 16 10 16 15 0 13 -6 11 -20
-6z"/>
<path d="M4312 10803 c5 -6 16 -9 24 -6 23 8 16 21 -10 19 -18 -1 -22 -4 -14
-13z"/>
<path d="M4270 10781 c0 -10 19 -25 25 -20 1 2 -3 10 -11 17 -8 7 -14 8 -14 3z"/>
<path d="M4040 10560 c-9 -6 -10 -10 -3 -10 6 0 15 5 18 10 8 12 4 12 -15 0z"/>
<path d="M4020 10223 c-11 -13 -12 -24 -5 -40 5 -13 13 -23 18 -23 4 0 6 -4 3
-9 -3 -5 13 -15 36 -23 38 -12 47 -12 74 1 17 9 29 22 27 29 -3 6 1 13 9 13 7
1 -5 5 -27 8 -31 5 -40 10 -40 26 0 14 -7 20 -25 21 -14 1 -32 5 -40 8 -9 4
-22 -1 -30 -11z"/>
<path d="M3810 10133 c0 -4 9 -19 20 -33 19 -25 20 -25 20 -3 0 12 -9 27 -20
33 -11 6 -20 7 -20 3z"/>
<path d="M7085 10085 c-27 -10 -41 -11 -46 -3 -12 19 -27 -24 -22 -63 7 -49
-12 -97 -40 -101 -12 -2 -21 -8 -21 -13 1 -6 4 -25 8 -43 3 -18 2 -31 -3 -27
-12 7 -1 -35 16 -62 9 -13 12 -31 8 -44 -8 -25 11 -95 33 -121 8 -9 12 -21 8
-26 -5 -8 176 -195 185 -190 2 2 3 1 1 -2 -1 -2 55 -63 125 -134 70 -72 125
-128 121 -126 -16 11 -518 513 -518 518 0 3 14 -7 30 -23 35 -34 39 -22 6 19
-15 18 -26 24 -30 17 -5 -8 -13 -8 -28 0 -19 10 -19 9 2 -19 12 -16 35 -39 51
-51 16 -12 29 -27 29 -34 0 -6 -7 -2 -15 10 -18 26 -70 39 -60 14 6 -14 16
-105 19 -168 1 -11 4 -20 7 -18 3 2 5 -15 4 -38 0 -23 3 -44 6 -47 4 -3 11
-39 16 -80 8 -72 6 -87 -21 -130 -6 -8 -9 -32 -7 -53 2 -29 -3 -45 -19 -62
-36 -38 -37 -99 -3 -170 18 -39 28 -76 28 -107 0 -25 -3 -41 -7 -35 -4 6 -10
8 -15 4 -4 -4 -2 -17 5 -27 6 -11 14 -37 18 -59 6 -37 5 -39 -15 -34 -16 4
-21 1 -21 -16 0 -11 -4 -21 -10 -21 -5 0 -10 -11 -10 -24 0 -28 -16 -43 -23
-24 -4 8 -6 7 -6 -4 -1 -9 4 -20 9 -23 6 -3 10 -17 10 -31 0 -14 -4 -22 -10
-19 -12 7 -13 -2 -10 -80 1 -33 4 -123 6 -200 2 -77 5 -171 7 -210 3 -38 2
-74 -1 -80 -4 -5 -8 -28 -9 -49 -2 -22 -12 -57 -23 -78 -20 -39 -25 -106 -11
-143 5 -11 4 -28 -1 -38 -7 -14 -5 -22 9 -32 10 -7 15 -17 10 -21 -4 -4 -7 -2
-7 4 0 7 -4 12 -10 12 -14 0 -12 -31 4 -62 13 -24 13 -29 -1 -36 -12 -7 -13
-13 -4 -30 6 -12 10 -25 9 -29 -3 -10 13 -56 21 -63 3 -3 11 -14 17 -24 8 -15
23 -20 70 -23 94 -5 107 -10 100 -39 -6 -22 -4 -24 21 -19 16 3 22 2 16 -1 -7
-3 -13 -10 -13 -15 0 -6 13 -2 29 7 17 10 28 21 25 25 -2 4 0 10 5 13 5 4 12
2 16 -4 3 -5 11 -10 16 -10 6 0 7 5 3 12 -4 7 -3 8 4 4 7 -4 12 -3 12 3 0 5
-5 13 -10 16 -6 4 -8 11 -4 16 3 5 10 7 15 3 5 -3 7 -10 4 -15 -4 -5 -2 -9 3
-9 5 0 43 35 84 78 215 218 257 257 270 244 11 -11 10 -12 -2 -7 -19 7 -337
-310 -321 -320 14 -8 6 -22 -22 -36 -21 -10 -21 -10 1 8 13 10 20 22 16 25 -9
9 -63 -45 -56 -56 3 -5 -1 -6 -8 -1 -9 6 -11 4 -5 -5 6 -9 4 -11 -4 -5 -9 5
-10 10 -2 18 6 6 11 16 11 21 -1 6 -10 0 -20 -13 -16 -18 -18 -27 -9 -38 10
-11 15 -11 30 3 11 10 19 13 19 9 0 -5 9 1 20 13 12 12 26 23 33 23 42 4 77
18 77 31 0 5 8 7 17 4 19 -8 33 9 33 42 0 14 6 22 18 22 12 0 22 -14 31 -45
11 -37 16 -43 27 -34 11 9 15 8 20 -5 9 -23 21 -20 28 9 7 29 21 32 35 8 6
-10 11 -13 11 -8 0 12 59 80 69 80 4 0 15 8 25 18 10 9 21 17 26 17 5 0 11 9
15 19 3 10 17 22 30 25 18 5 25 13 25 32 0 21 4 24 20 19 15 -5 18 -3 14 9 -4
9 -1 16 6 16 8 0 11 12 8 35 -2 19 1 37 7 39 6 3 4 9 -5 16 -11 9 -12 13 -2
17 15 6 16 40 0 45 -7 3 -8 10 -4 17 6 9 15 6 37 -14 19 -19 35 -26 48 -22 12
3 21 1 21 -4 0 -5 5 -9 10 -9 6 0 10 6 9 13 -3 20 12 47 28 47 9 0 14 9 13 23
-4 40 0 49 15 43 10 -4 15 1 15 15 0 15 5 18 24 15 20 -4 28 2 41 30 9 19 20
34 24 34 5 0 11 12 14 28 3 15 13 36 21 47 13 18 17 18 38 6 24 -14 6 8 -91
111 -25 26 -40 51 -36 57 8 13 -12 41 -29 41 -6 0 -2 -7 8 -15 11 -8 17 -18
13 -21 -7 -8 -48 39 -59 68 -4 10 -3 18 2 18 6 0 10 -7 10 -15 0 -8 4 -15 9
-15 6 0 6 12 1 30 -5 19 -5 28 1 25 5 -4 9 -14 9 -24 0 -16 100 -121 115 -121
4 0 3 10 -1 23 -6 21 -6 22 14 4 21 -20 36 -10 26 17 -3 9 -1 16 5 16 6 0 11
-5 11 -11 0 -5 5 -7 11 -4 6 4 8 10 5 13 -3 3 -1 11 4 17 7 9 6 16 -5 25 -21
18 -19 32 5 25 17 -5 21 -1 27 27 4 18 6 36 5 41 -1 4 5 7 13 7 19 0 19 3 -5
47 -34 63 -25 143 23 214 14 21 15 32 8 53 -7 17 -7 26 -1 26 13 0 13 87 0 95
-6 4 -7 11 -4 17 12 19 -18 -3 -66 -48 -77 -72 -97 -86 -103 -70 -4 9 21 44
60 88 119 131 110 115 85 137 -15 12 -22 30 -22 53 0 19 -4 38 -10 44 -5 5
-14 30 -19 54 -18 85 -29 120 -48 157 -11 21 -23 57 -26 79 -4 23 -14 54 -22
70 -8 16 -15 39 -15 52 0 12 -4 22 -10 22 -5 0 -10 9 -10 19 0 11 -4 23 -10
26 -5 3 -10 15 -10 26 0 11 -6 22 -14 25 -8 3 -17 16 -20 29 -3 13 -13 31 -22
39 -8 9 -16 25 -17 36 -1 11 -4 20 -8 20 -11 0 -39 61 -33 71 3 5 -5 9 -17 9
-17 0 -20 3 -12 11 8 8 6 17 -7 33 -10 11 -42 49 -70 84 -28 34 -59 62 -67 62
-8 0 -31 18 -50 40 -19 22 -39 38 -43 35 -5 -3 -18 7 -30 22 -12 16 -27 28
-33 28 -6 0 -16 9 -22 20 -11 21 -25 27 -62 29 -21 1 -55 25 -134 95 -36 31
-90 53 -131 52 -10 0 -20 4 -23 10 -9 13 -43 11 -90 -6z m-5 -481 c0 -8 -5
-12 -10 -9 -6 4 -8 11 -5 16 9 14 15 11 15 -7z m786 -106 l17 -33 -22 19 c-11
11 -21 25 -21 33 0 21 8 15 26 -19z m-856 -379 c0 -5 -4 -9 -10 -9 -5 0 -10 7
-10 16 0 8 5 12 10 9 6 -3 10 -10 10 -16z m1085 -139 c3 -5 1 -10 -4 -10 -6 0
-11 5 -11 10 0 6 2 10 4 10 3 0 8 -4 11 -10z m-1099 -72 c13 -13 24 -33 24
-46 0 -15 4 -21 12 -16 6 4 8 3 4 -4 -3 -6 1 -18 10 -26 8 -9 14 -21 12 -27
-5 -14 -66 63 -84 106 -17 41 -11 44 22 13z m1194 -188 c0 -5 -4 -10 -10 -10
-5 0 -10 5 -10 10 0 6 5 10 10 10 6 0 10 -4 10 -10z m-283 -392 c-3 -8 -6 -5
-6 6 -1 11 2 17 5 13 3 -3 4 -12 1 -19z m70 -110 c-3 -8 -6 -5 -6 6 -1 11 2
17 5 13 3 -3 4 -12 1 -19z m-8 -58 c1 -12 -1 -13 -8 -1 -7 11 -11 10 -20 -5
-14 -25 -14 -5 1 37 12 34 12 34 19 9 4 -14 7 -32 8 -40z m-47 -482 c-7 -7
-12 -8 -12 -2 0 14 12 26 19 19 2 -3 -1 -11 -7 -17z m-655 -383 c0 -8 -4 -12
-9 -9 -5 3 -6 10 -3 15 9 13 12 11 12 -6z m-110 -80 c0 -8 -3 -13 -5 -10 -3 3
-12 -1 -21 -7 -10 -8 -9 -4 3 10 23 26 23 26 23 7z"/>
<path d="M10828 9953 c7 -3 16 -2 19 1 4 3 -2 6 -13 5 -11 0 -14 -3 -6 -6z"/>
<path d="M3600 9905 c-13 -16 -7 -45 10 -45 5 0 10 14 10 30 0 34 -3 36 -20
15z"/>
<path d="M3570 9850 c0 -5 5 -10 11 -10 5 0 7 5 4 10 -3 6 -8 10 -11 10 -2 0
-4 -4 -4 -10z"/>
<path d="M6934 9688 c0 -10 1 -18 3 -18 1 0 7 8 12 18 7 13 6 19 -2 19 -7 0
-13 -9 -13 -19z"/>
<path d="M7005 9590 c3 -5 8 -10 11 -10 2 0 4 5 4 10 0 6 -5 10 -11 10 -5 0
-7 -4 -4 -10z"/>
<path d="M4632 9080 c0 -14 2 -19 5 -12 2 6 2 18 0 25 -3 6 -5 1 -5 -13z"/>
<path d="M8070 8545 c-13 -14 -19 -25 -13 -25 6 0 18 11 27 25 9 14 15 25 13
25 -2 0 -14 -11 -27 -25z"/>
<path d="M6985 7180 c3 -5 13 -10 21 -10 8 0 14 5 14 10 0 6 -9 10 -21 10 -11
0 -17 -4 -14 -10z"/>
<path d="M6518 6477 c9 -10 4 -22 -19 -50 -17 -20 -27 -37 -24 -37 4 0 2 -6
-4 -14 -9 -10 -9 -16 -1 -21 6 -4 9 -13 6 -20 -2 -7 3 -20 13 -29 22 -20 31
-20 31 -1 0 13 3 13 20 3 11 -7 23 -21 26 -32 3 -10 9 -15 13 -10 9 13 31 16
31 3 0 -5 5 -7 10 -4 6 3 10 0 10 -7 0 -23 57 -50 89 -43 24 5 30 2 36 -16 5
-14 2 -25 -6 -30 -11 -7 -11 -9 2 -9 8 0 20 5 27 12 6 6 14 9 17 6 3 -3 -9
-12 -26 -21 l-32 -15 44 -7 c24 -3 60 -9 79 -12 l35 -5 -44 45 c-24 26 -48 44
-53 41 -4 -3 -8 1 -8 9 0 14 -261 277 -275 277 -4 0 -3 -6 3 -13z"/>
<path d="M6341 6326 l-114 -114 32 -7 c43 -9 92 3 98 25 3 10 11 16 18 14 7
-3 18 8 26 25 8 17 17 31 20 31 8 0 25 47 28 78 1 8 6 10 14 6 6 -4 9 -4 5 1
-4 4 -3 14 3 21 10 13 5 34 -9 34 -4 0 -58 -51 -121 -114z m119 84 c0 -5 -5
-10 -11 -10 -5 0 -7 5 -4 10 3 6 8 10 11 10 2 0 4 -4 4 -10z"/>
<path d="M7790 6259 c0 -5 5 -7 10 -4 6 3 10 8 10 11 0 2 -4 4 -10 4 -5 0 -10
-5 -10 -11z"/>
<path d="M6711 6200 c-10 -5 -9 -8 2 -13 7 -3 19 -2 26 3 10 5 9 8 -2 13 -7 3
-19 2 -26 -3z"/>
<path d="M7458 6143 c6 -2 18 -2 25 0 6 3 1 5 -13 5 -14 0 -19 -2 -12 -5z"/>
<path d="M7458 5684 c-10 -9 34 -82 52 -87 9 -2 22 4 29 14 9 16 8 19 -6 19
-15 0 -16 2 -3 10 11 7 11 10 2 10 -7 0 -10 5 -6 12 4 7 3 8 -4 4 -6 -4 -22 0
-35 9 -13 8 -26 12 -29 9z"/>
<path d="M7434 5645 c1 -8 7 -20 14 -27 8 -8 9 -5 5 11 -6 25 -22 38 -19 16z"/>
<path d="M4230 4811 c0 -6 5 -13 10 -16 6 -4 8 -16 4 -28 -6 -21 -5 -21 11 -6
16 16 16 18 -4 38 -12 12 -21 17 -21 12z"/>
<path d="M4287 4713 c-12 -12 -7 -63 9 -94 8 -17 18 -28 21 -25 3 3 -2 17 -11
31 -14 22 -15 32 -7 57 6 17 11 33 11 34 0 7 -16 4 -23 -3z"/>
<path d="M6791 4574 c0 -11 3 -14 6 -6 3 7 2 16 -1 19 -3 4 -6 -2 -5 -13z"/>
<path d="M7105 3190 c-3 -5 -1 -10 4 -10 6 0 11 5 11 10 0 6 -2 10 -4 10 -3 0
-8 -4 -11 -10z"/>
<path d="M6307 2553 c-14 -16 -14 -19 1 -33 14 -13 15 -12 9 5 -6 18 -6 18 6
3 7 -9 24 -19 38 -23 13 -3 41 -22 61 -41 20 -18 42 -34 48 -34 7 0 9 -7 6
-16 -3 -8 -2 -12 4 -9 6 3 10 -2 11 -12 0 -14 2 -13 10 5 10 27 33 19 26 -8
-3 -13 0 -17 9 -13 8 3 14 0 14 -7 0 -6 4 -9 9 -6 10 6 61 -16 61 -26 0 -5 7
-8 15 -8 8 0 15 -5 15 -11 0 -6 7 -9 15 -5 8 3 15 1 15 -4 0 -5 -12 -11 -27
-13 -27 -4 -27 -4 4 -6 17 0 33 3 35 7 5 13 58 24 58 13 0 -5 -10 -12 -22 -14
-17 -3 -15 -5 9 -6 25 -1 30 2 27 17 -4 13 2 18 31 20 19 1 54 -2 77 -7 29 -7
46 -6 55 1 10 8 12 7 7 -5 -4 -11 -18 -16 -45 -15 -22 0 -43 -2 -46 -6 -16
-16 81 -4 102 12 l24 19 -92 91 -92 92 -53 0 c-90 0 -244 20 -314 40 -81 24
-91 25 -111 3z m420 -215 c-3 -8 -6 -5 -6 6 -1 11 2 17 5 13 3 -3 4 -12 1 -19z"/>
<path d="M6252 2530 c-12 -19 -11 -20 8 -8 11 7 20 16 20 20 0 15 -15 8 -28
-12z"/>
<path d="M6894 2411 c99 -99 100 -100 127 -86 21 12 29 12 32 2 3 -6 6 32 6
86 l1 97 -132 0 -133 0 99 -99z"/>
<path d="M6976 2306 c7 -19 20 -21 30 -3 4 6 4 9 -1 5 -4 -4 -14 -3 -22 4 -11
8 -12 7 -7 -6z"/>
<path d="M3957 2132 c-30 -2 -50 -8 -54 -18 -3 -8 -14 -14 -24 -14 -10 0 -19
-4 -19 -8 0 -5 -12 -14 -27 -21 -25 -11 -30 -10 -49 13 -22 24 -22 24 -40 5
-12 -13 -21 -16 -29 -9 -9 8 -14 4 -19 -12 -4 -16 0 -28 15 -40 18 -16 19 -18
4 -18 -13 0 -16 -5 -11 -22 4 -13 9 -49 12 -81 5 -61 41 -131 73 -142 9 -3 29
-26 44 -50 16 -25 35 -45 43 -45 8 0 18 -8 21 -17 26 -68 94 -91 278 -93 107
-1 140 2 185 18 51 18 124 26 116 13 -2 -3 15 -7 38 -7 22 -1 61 -11 86 -21
41 -18 50 -18 95 -7 90 24 108 20 171 -41 62 -59 100 -70 140 -40 10 8 35 19
54 25 20 5 46 19 58 30 20 19 26 18 23 -3 0 -4 16 2 36 13 45 24 123 107 123
130 0 9 15 37 33 61 48 62 61 100 52 154 -5 37 -11 48 -32 56 -27 10 -63 4
-63 -11 0 -5 -20 3 -45 19 -38 24 -50 27 -89 21 -25 -4 -49 -3 -55 3 -11 11
-34 0 -26 -13 3 -4 -3 -6 -14 -3 -10 2 -24 17 -31 31 -11 25 -13 25 -24 9 -14
-19 -36 -23 -36 -7 0 6 -4 10 -10 10 -5 0 -7 -7 -4 -15 4 -8 1 -15 -5 -15 -6
0 -16 -11 -21 -25 -7 -19 -19 -26 -51 -31 -28 -5 -43 -13 -48 -27 -7 -19 -8
-19 -14 -2 -6 14 -14 16 -48 11 -25 -4 -46 -2 -54 4 -7 6 -29 12 -49 14 -20 2
-39 6 -42 9 -13 12 -34 -6 -29 -24 4 -11 2 -19 -4 -19 -6 0 -11 5 -11 10 0 6
-9 10 -20 10 -13 0 -20 7 -20 19 0 10 -7 24 -15 31 -10 9 -15 9 -15 1 0 -6 -7
-11 -15 -11 -8 0 -15 5 -15 10 0 6 -7 10 -15 10 -20 0 -30 27 -17 43 6 7 10
26 8 42 -2 17 -4 36 -5 43 0 6 -10 12 -21 12 -11 0 -20 7 -20 15 0 18 -5 18
-31 4 -15 -7 -24 -7 -35 1 -7 7 -21 10 -29 6 -8 -3 -15 -2 -15 2 0 4 -13 7
-29 7 -16 0 -27 -3 -25 -7 2 -4 0 -9 -5 -12 -5 -3 -12 1 -15 10 -4 11 -12 14
-24 9 -35 -14 -47 -17 -36 -8 12 8 -115 11 -209 5z m153 -12 c0 -5 -4 -10 -10
-10 -5 0 -10 5 -10 10 0 6 5 10 10 10 6 0 10 -4 10 -10z m-375 -140 c3 -5 1
-10 -4 -10 -6 0 -11 5 -11 10 0 6 2 10 4 10 3 0 8 -4 11 -10z m70 -140 c44
-44 77 -80 75 -80 -3 0 -41 36 -85 80 -44 44 -77 80 -75 80 3 0 41 -36 85 -80z
m839 -25 c3 -8 1 -15 -3 -15 -5 0 -11 7 -15 15 -3 8 -1 15 3 15 5 0 11 -7 15
-15z m-427 -17 c-3 -8 -6 -5 -6 6 -1 11 2 17 5 13 3 -3 4 -12 1 -19z m463 -23
c0 -8 -7 -15 -15 -15 -16 0 -20 12 -8 23 11 12 23 8 23 -8z"/>
<path d="M5664 1968 c2 -15 -2 -29 -7 -31 -8 -2 -8 -5 0 -10 15 -10 21 13 12
43 -9 25 -9 25 -5 -2z"/>
<path d="M5500 1620 c0 -5 5 -10 10 -10 6 0 10 5 10 10 0 6 -4 10 -10 10 -5 0
-10 -4 -10 -10z"/>
<path d="M5511 1600 c-9 -5 -12 -17 -8 -30 4 -16 3 -20 -5 -12 -7 7 -19 0 -40
-24 -25 -28 -28 -37 -18 -49 7 -8 17 -12 22 -9 5 3 12 -3 15 -15 3 -12 9 -21
14 -21 5 0 9 -11 9 -25 0 -14 5 -24 12 -22 6 1 17 -9 25 -23 l13 -25 1 25 c1
14 2 32 3 40 1 8 5 20 9 27 8 12 6 17 -27 80 -18 34 -20 47 -8 39 9 -5 10 39
2 48 -3 3 -12 1 -19 -4z"/>
<path d="M3336 965 c-9 -26 -7 -32 5 -12 6 10 9 21 6 23 -2 3 -7 -2 -11 -11z"/>
<path d="M6935 750 c3 -5 8 -10 11 -10 2 0 4 5 4 10 0 6 -5 10 -11 10 -5 0 -7
-4 -4 -10z"/>
<path d="M6996 3281 c-4 -5 -2 -12 3 -15 5 -4 12 -2 15 3 4 5 2 12 -3 15 -5 4
-12 2 -15 -3z"/>
</g>
</svg>
